<svg xmlns="http://www.w3.org/2000/svg" xmlns:xlink="http://www.w3.org/1999/xlink" width="1280" zoomAndPan="magnify" viewBox="0 0 960 599.999999" height="800" preserveAspectRatio="xMidYMid meet" version="1.2"><g id="593b8aec7b"><path style=" stroke:none;fill-rule:evenodd;fill:#59c2c8;fill-opacity:1;" d="M 440.246094 552.738281 C 501.59375 552.738281 551.339844 556.5625 551.339844 561.273438 C 551.339844 565.984375 501.59375 569.796875 440.246094 569.796875 C 378.890625 569.796875 329.15625 565.984375 329.15625 561.273438 C 329.15625 556.5625 378.890625 552.738281 440.246094 552.738281 Z M 440.246094 552.738281 "/><path style=" stroke:none;fill-rule:evenodd;fill:#141510;fill-opacity:1;" d="M 373.628906 73.132812 L 537.4375 73.132812 C 554.808594 73.132812 569.011719 87.34375 569.011719 104.71875 L 569.011719 491.046875 C 569.011719 508.414062 554.808594 522.625 537.4375 522.625 L 373.628906 522.625 C 356.269531 522.625 342.066406 508.414062 342.066406 491.046875 L 342.066406 104.71875 C 342.066406 87.34375 356.269531 73.132812 373.628906 73.132812 Z M 373.628906 73.132812 "/><path style=" stroke:none;fill-rule:evenodd;fill:#59c2c8;fill-opacity:1;" d="M 373.628906 82.726562 L 392.332031 82.726562 L 392.332031 90.640625 C 392.332031 96.34375 397.003906 101.015625 402.707031 101.015625 L 509.132812 101.015625 C 514.84375 101.015625 519.507812 96.34375 519.507812 90.640625 L 519.507812 82.726562 L 537.4375 82.726562 C 549.535156 82.726562 559.421875 92.617188 559.421875 104.71875 L 559.421875 491.046875 C 559.421875 503.140625 549.535156 513.03125 537.4375 513.03125 L 373.628906 513.03125 C 361.542969 513.03125 351.65625 503.140625 351.65625 491.046875 L 351.65625 104.71875 C 351.65625 92.617188 361.542969 82.726562 373.628906 82.726562 Z M 373.628906 82.726562 "/><path style=" stroke:none;fill-rule:evenodd;fill:#e7e9de;fill-opacity:1;" d="M 505.320312 83.910156 C 508.238281 83.910156 510.613281 86.285156 510.613281 89.210938 C 510.613281 92.140625 508.238281 94.503906 505.320312 94.503906 C 502.394531 94.503906 500.019531 92.140625 500.019531 89.210938 C 500.019531 86.285156 502.394531 83.910156 505.320312 83.910156 Z M 505.320312 83.910156 "/><path style=" stroke:none;fill-rule:evenodd;fill:#e7e9de;fill-opacity:1;" d="M 403.5625 83.910156 C 406.492188 83.910156 408.855469 86.285156 408.855469 89.210938 C 408.855469 92.140625 406.492188 94.503906 403.5625 94.503906 C 400.636719 94.503906 398.261719 92.140625 398.261719 89.210938 C 398.261719 86.285156 400.636719 83.910156 403.5625 83.910156 Z M 403.5625 83.910156 "/><path style=" stroke:none;fill-rule:evenodd;fill:#fcffff;fill-opacity:1;" d="M 559.421875 470.15625 L 351.65625 470.15625 L 351.65625 491.046875 C 351.65625 503.140625 361.542969 513.03125 373.628906 513.03125 L 537.4375 513.03125 C 549.535156 513.03125 559.421875 503.140625 559.421875 491.046875 Z M 559.421875 470.15625 "/><path style=" stroke:none;fill-rule:nonzero;fill:#000000;fill-opacity:1;" d="M 413.785156 505.847656 C 412.488281 505.847656 411.4375 504.800781 411.4375 503.503906 C 411.4375 502.214844 412.488281 501.167969 413.785156 501.167969 L 492.242188 501.167969 C 493.527344 501.167969 494.578125 502.214844 494.578125 503.503906 C 494.578125 504.800781 493.527344 505.847656 492.242188 505.847656 Z M 413.785156 505.847656 "/><path style=" stroke:none;fill-rule:evenodd;fill:#59c6c9;fill-opacity:1;" d="M 656.441406 36.160156 C 684.925781 42.234375 703.097656 70.273438 697.023438 98.777344 C 691.523438 124.582031 668.023438 141.917969 642.484375 140.460938 L 601.167969 161.992188 L 627.480469 137.386719 C 603.054688 128.578125 588.28125 102.867188 593.847656 76.757812 C 599.917969 48.253906 627.945312 30.078125 656.441406 36.160156 Z M 656.441406 36.160156 "/><path style=" stroke:none;fill-rule:evenodd;fill:#fcffff;fill-opacity:1;" d="M 634.601562 102.933594 C 638.519531 86.234375 640.484375 77.890625 640.484375 77.890625 C 646.738281 71.933594 650.246094 67.792969 651 65.476562 C 651.464844 56.519531 654.238281 53.515625 659.339844 56.484375 C 663.859375 59.800781 664.296875 66.230469 660.644531 75.785156 C 670.550781 78.121094 675.5 79.285156 675.5 79.285156 C 677.328125 80.296875 678.558594 82.125 678.777344 84.203125 C 679.007812 86.273438 678.214844 88.335938 676.644531 89.714844 C 677.699219 91.089844 677.957031 92.921875 677.300781 94.523438 C 676.652344 96.125 675.195312 97.269531 673.476562 97.515625 C 673.886719 99.015625 673.660156 100.605469 672.859375 101.933594 C 672.046875 103.25 670.730469 104.183594 669.214844 104.496094 C 670.054688 106.273438 669.835938 108.359375 668.644531 109.914062 C 667.460938 111.46875 665.5 112.230469 663.574219 111.886719 C 646.566406 108.160156 638.070312 106.300781 638.070312 106.300781 C 635.886719 105.984375 634.734375 104.871094 634.601562 102.933594 Z M 634.601562 102.933594 "/><path style=" stroke:none;fill-rule:evenodd;fill:#314550;fill-opacity:1;" d="M 624.667969 72.703125 L 638.863281 76.011719 L 632.140625 104.878906 L 617.945312 101.578125 C 615.046875 100.902344 613.226562 97.976562 613.90625 95.074219 L 618.167969 76.757812 C 618.84375 73.847656 621.769531 72.027344 624.667969 72.703125 Z M 624.667969 72.703125 "/><path style=" stroke:none;fill-rule:evenodd;fill:#f2a883;fill-opacity:1;" d="M 377.863281 256.496094 C 373.125 234.066406 366.824219 235.773438 357.792969 249.191406 C 356.117188 254.644531 358.9375 258.601562 366.261719 261.054688 C 367.386719 261.921875 372.953125 271.265625 374.820312 275.226562 C 382.4375 272.574219 386.242188 271.25 386.242188 271.25 C 383.371094 266.03125 377.863281 256.496094 377.863281 256.496094 Z M 377.863281 256.496094 "/><path style=" stroke:none;fill-rule:evenodd;fill:#516d78;fill-opacity:1;" d="M 342.636719 176.640625 L 343.542969 180.367188 L 330.558594 183.515625 L 333.675781 196.398438 L 329.949219 197.304688 L 326.183594 181.730469 C 326.097656 181.0625 326.363281 180.617188 327.011719 180.414062 L 329.652344 179.777344 Z M 342.636719 176.640625 "/><path style=" stroke:none;fill-rule:evenodd;fill:#516d78;fill-opacity:1;" d="M 355.488281 222.84375 L 359.214844 221.945312 L 363.238281 238.566406 L 359.519531 239.472656 Z M 355.488281 222.84375 "/><path style=" stroke:none;fill-rule:evenodd;fill:#516d78;fill-opacity:1;" d="M 329.578125 196.273438 L 375.9375 185.050781 C 377.15625 184.753906 378.40625 185.507812 378.703125 186.730469 L 384.496094 210.664062 C 384.792969 211.886719 384.03125 213.125 382.808594 213.421875 L 336.441406 224.65625 C 335.21875 224.949219 333.980469 224.195312 333.683594 222.976562 L 327.890625 199.039062 C 327.59375 197.820312 328.355469 196.578125 329.578125 196.273438 Z M 329.578125 196.273438 "/><path style=" stroke:none;fill-rule:evenodd;fill:#516d78;fill-opacity:1;" d="M 364.984375 188.855469 L 338.242188 195.207031 L 337.402344 186.003906 L 361.054688 180.160156 Z M 364.984375 188.855469 "/><path style=" stroke:none;fill-rule:evenodd;fill:#314550;fill-opacity:1;" d="M 337.414062 186.097656 L 358.308594 180.929688 L 362.179688 189.523438 L 338.242188 195.207031 Z M 337.414062 186.097656 "/><path style=" stroke:none;fill-rule:evenodd;fill:#516d78;fill-opacity:1;" d="M 342.933594 186.289062 L 352.496094 183.972656 C 353.257812 183.792969 354.019531 184.257812 354.210938 185.011719 C 354.390625 185.773438 353.925781 186.546875 353.160156 186.730469 L 343.601562 189.046875 C 342.835938 189.226562 342.074219 188.761719 341.882812 187.996094 C 341.703125 187.242188 342.171875 186.472656 342.933594 186.289062 Z M 342.933594 186.289062 "/><path style=" stroke:none;fill-rule:evenodd;fill:#314550;fill-opacity:1;" d="M 329.578125 196.273438 L 371.332031 186.167969 C 372.550781 185.871094 373.800781 186.625 374.097656 187.84375 L 379.894531 211.78125 C 380.1875 213 379.425781 214.242188 378.207031 214.535156 L 336.441406 224.65625 C 335.21875 224.949219 333.980469 224.195312 333.683594 222.976562 L 327.890625 199.039062 C 327.59375 197.820312 328.355469 196.578125 329.578125 196.273438 Z M 329.578125 196.273438 "/><path style=" stroke:none;fill-rule:evenodd;fill:#516d78;fill-opacity:1;" d="M 335.753906 198.476562 L 357.863281 193.117188 C 359.644531 192.6875 361.457031 193.796875 361.894531 195.578125 L 365.488281 210.445312 C 365.917969 212.230469 364.8125 214.050781 363.027344 214.480469 L 340.929688 219.839844 C 339.136719 220.269531 337.328125 219.160156 336.898438 217.367188 L 333.292969 202.511719 C 332.867188 200.726562 333.972656 198.90625 335.753906 198.476562 Z M 335.753906 198.476562 "/><path style=" stroke:none;fill-rule:evenodd;fill:#000000;fill-opacity:1;" d="M 347.058594 221.449219 L 366.125 216.824219 L 367.109375 220.878906 C 367.328125 221.8125 366.746094 222.765625 365.8125 222.996094 L 350.160156 226.78125 C 349.222656 227.007812 348.269531 226.429688 348.042969 225.492188 Z M 347.058594 221.449219 "/><path style=" stroke:none;fill-rule:evenodd;fill:#516d78;fill-opacity:1;" d="M 366.945312 193.183594 L 369.273438 192.621094 C 369.816406 192.488281 370.359375 192.824219 370.492188 193.355469 L 371.074219 195.777344 C 371.207031 196.320312 370.875 196.867188 370.339844 197 L 368.003906 197.5625 C 367.472656 197.6875 366.929688 197.351562 366.792969 196.816406 L 366.210938 194.394531 C 366.078125 193.863281 366.414062 193.316406 366.945312 193.183594 Z M 366.945312 193.183594 "/><path style=" stroke:none;fill-rule:evenodd;fill:#516d78;fill-opacity:1;" d="M 368.386719 199.125 L 370.710938 198.5625 C 371.253906 198.4375 371.800781 198.773438 371.933594 199.308594 L 372.515625 201.730469 C 372.648438 202.261719 372.3125 202.808594 371.78125 202.941406 L 369.445312 203.503906 C 368.910156 203.636719 368.367188 203.300781 368.234375 202.757812 L 367.652344 200.347656 C 367.519531 199.804688 367.851562 199.257812 368.386719 199.125 Z M 368.386719 199.125 "/><path style=" stroke:none;fill-rule:evenodd;fill:#516d78;fill-opacity:1;" d="M 371.351562 206.144531 C 372.152344 205.953125 372.953125 206.441406 373.144531 207.242188 C 373.34375 208.042969 372.847656 208.84375 372.054688 209.035156 C 371.253906 209.226562 370.453125 208.738281 370.265625 207.9375 C 370.0625 207.144531 370.558594 206.34375 371.351562 206.144531 Z M 371.351562 206.144531 "/><path style=" stroke:none;fill-rule:evenodd;fill:#314550;fill-opacity:1;" d="M 366.316406 184.222656 L 368.433594 183.707031 C 369.023438 183.5625 369.625 183.925781 369.769531 184.515625 L 370.292969 186.699219 L 366.03125 187.730469 L 365.507812 185.546875 C 365.363281 184.953125 365.726562 184.355469 366.316406 184.222656 Z M 366.316406 184.222656 "/><path style=" stroke:none;fill-rule:evenodd;fill:#516d78;fill-opacity:1;" d="M 368.578125 211.714844 C 369.0625 211.597656 369.558594 211.894531 369.683594 212.390625 C 369.796875 212.878906 369.492188 213.371094 369.007812 213.496094 C 368.511719 213.613281 368.015625 213.316406 367.898438 212.820312 C 367.777344 212.324219 368.082031 211.835938 368.578125 211.714844 Z M 368.578125 211.714844 "/><path style=" stroke:none;fill-rule:evenodd;fill:#516d78;fill-opacity:1;" d="M 376.25 209.855469 C 376.746094 209.730469 377.242188 210.035156 377.355469 210.53125 C 377.480469 211.015625 377.175781 211.511719 376.691406 211.636719 C 376.195312 211.75 375.699219 211.445312 375.582031 210.960938 C 375.460938 210.464844 375.765625 209.96875 376.25 209.855469 Z M 376.25 209.855469 "/><path style=" stroke:none;fill-rule:evenodd;fill:#000000;fill-opacity:1;" d="M 357.671875 237.546875 L 364.039062 236.003906 C 364.679688 235.851562 365.324219 236.25 365.480469 236.878906 C 365.632812 237.519531 365.242188 238.167969 364.601562 238.320312 L 358.234375 239.863281 C 357.59375 240.015625 356.945312 239.625 356.792969 238.988281 C 356.632812 238.347656 357.03125 237.699219 357.671875 237.546875 Z M 357.671875 237.546875 "/><path style=" stroke:none;fill-rule:evenodd;fill:#000000;fill-opacity:1;" d="M 358.082031 238.214844 L 363.972656 236.785156 L 370.378906 263.238281 C 370.722656 264.679688 369.824219 266.144531 368.386719 266.488281 L 367.738281 266.652344 C 366.296875 266.996094 364.839844 266.109375 364.488281 264.660156 Z M 358.082031 238.214844 "/><path style=" stroke:none;fill-rule:evenodd;fill:#000000;fill-opacity:1;" d="M 337.890625 173.875 L 356.308594 169.410156 C 358.347656 168.925781 360.417969 170.183594 360.902344 172.214844 L 361.398438 174.253906 C 361.894531 176.285156 360.625 178.355469 358.59375 178.851562 L 340.167969 183.316406 C 338.136719 183.8125 336.070312 182.542969 335.582031 180.511719 L 335.085938 178.46875 C 334.589844 176.4375 335.847656 174.371094 337.890625 173.875 Z M 337.890625 173.875 "/><path style=" stroke:none;fill-rule:nonzero;fill:#000000;fill-opacity:1;" d="M 337.84375 173.683594 L 356.261719 169.210938 C 357.335938 168.953125 358.414062 169.152344 359.292969 169.695312 C 360.167969 170.230469 360.84375 171.097656 361.101562 172.167969 L 361.597656 174.207031 C 361.855469 175.277344 361.65625 176.363281 361.121094 177.238281 C 360.589844 178.117188 359.71875 178.785156 358.644531 179.050781 L 340.214844 183.515625 C 339.148438 183.773438 338.070312 183.570312 337.195312 183.039062 C 336.316406 182.496094 335.640625 181.625 335.382812 180.558594 L 334.886719 178.519531 C 334.628906 177.449219 334.828125 176.363281 335.363281 175.484375 C 335.898438 174.617188 336.765625 173.941406 337.84375 173.683594 Z M 356.355469 169.609375 L 337.9375 174.074219 C 336.972656 174.3125 336.191406 174.914062 335.714844 175.703125 C 335.230469 176.488281 335.046875 177.460938 335.285156 178.421875 L 335.773438 180.464844 C 336.011719 181.425781 336.613281 182.207031 337.402344 182.683594 C 338.195312 183.164062 339.167969 183.351562 340.121094 183.113281 L 358.546875 178.652344 C 359.511719 178.421875 360.292969 177.8125 360.769531 177.019531 C 361.253906 176.238281 361.4375 175.265625 361.199219 174.304688 L 360.703125 172.261719 C 360.472656 171.300781 359.863281 170.527344 359.082031 170.039062 C 358.289062 169.5625 357.316406 169.382812 356.355469 169.609375 Z M 356.355469 169.609375 "/><path style=" stroke:none;fill-rule:evenodd;fill:#e89e79;fill-opacity:1;" d="M 357.433594 248.5625 C 355.765625 251.144531 356.421875 252.863281 359.414062 253.730469 C 358.203125 254.027344 357.441406 255.207031 357.671875 256.429688 C 357.890625 257.648438 359.023438 258.488281 360.265625 258.335938 C 363.589844 258.144531 366.441406 256.277344 369.273438 254.597656 C 369.855469 254.207031 370.167969 253.53125 370.101562 252.832031 C 370.035156 252.136719 369.597656 251.527344 368.957031 251.242188 C 369.84375 250.917969 370.40625 250.039062 370.332031 249.09375 C 370.253906 248.152344 369.558594 247.378906 368.625 247.199219 C 369.464844 246.777344 369.929688 245.851562 369.757812 244.929688 C 369.578125 244.011719 368.816406 243.316406 367.882812 243.230469 C 368.605469 242.535156 368.929688 241.515625 368.738281 240.53125 C 368.546875 239.550781 367.863281 238.730469 366.929688 238.359375 C 361.484375 238.671875 357.585938 239.214844 355.230469 239.988281 C 354.238281 240.101562 353.535156 240.988281 353.636719 241.980469 C 353.753906 242.964844 354.640625 243.679688 355.632812 243.574219 C 354.390625 245.929688 354.992188 247.589844 357.433594 248.5625 Z M 357.433594 248.5625 "/><path style=" stroke:none;fill-rule:evenodd;fill:#e1826c;fill-opacity:1;" d="M 367.632812 251.585938 C 365.6875 253.214844 363.113281 253.492188 361.636719 252.605469 C 363.125 252.414062 365.699219 252.128906 367.632812 251.585938 Z M 367.632812 251.585938 "/><path style=" stroke:none;fill-rule:evenodd;fill:#e1826c;fill-opacity:1;" d="M 366.59375 247.40625 C 364.648438 249.039062 362.074219 249.324219 360.597656 248.429688 C 362.085938 248.238281 364.667969 247.960938 366.59375 247.40625 Z M 366.59375 247.40625 "/><path style=" stroke:none;fill-rule:evenodd;fill:#e1826c;fill-opacity:1;" d="M 365.613281 243.660156 C 363.675781 245.289062 361.09375 245.578125 359.617188 244.679688 C 361.101562 244.488281 363.6875 244.214844 365.613281 243.660156 Z M 365.613281 243.660156 "/><path style=" stroke:none;fill-rule:evenodd;fill:#e3bbaf;fill-opacity:1;" d="M 368.214844 252.082031 C 367.710938 252.71875 367.710938 253.320312 368.175781 253.941406 C 368.71875 254.121094 369.121094 253.910156 369.398438 253.3125 C 369.445312 252.578125 369.492188 251.367188 368.214844 252.082031 Z M 368.214844 252.082031 "/><path style=" stroke:none;fill-rule:evenodd;fill:#e3bbaf;fill-opacity:1;" d="M 367.9375 248.378906 C 367.355469 249.125 367.355469 249.820312 367.890625 250.546875 C 368.53125 250.765625 369.007812 250.527344 369.320312 249.820312 C 369.386719 248.960938 369.433594 247.53125 367.9375 248.378906 Z M 367.9375 248.378906 "/><path style=" stroke:none;fill-rule:evenodd;fill:#e3bbaf;fill-opacity:1;" d="M 367.234375 244.421875 C 366.640625 245.167969 366.640625 245.871094 367.183594 246.597656 C 367.8125 246.816406 368.289062 246.570312 368.613281 245.863281 C 368.671875 245.003906 368.71875 243.582031 367.234375 244.421875 Z M 367.234375 244.421875 "/><path style=" stroke:none;fill-rule:evenodd;fill:#e3bbaf;fill-opacity:1;" d="M 366.367188 239.863281 C 365.679688 240.722656 365.679688 241.535156 366.308594 242.371094 C 367.042969 242.621094 367.585938 242.34375 367.957031 241.535156 C 368.023438 240.53125 368.082031 238.890625 366.367188 239.863281 Z M 366.367188 239.863281 "/><path style=" stroke:none;fill-rule:evenodd;fill:#000000;fill-opacity:1;" d="M 491.222656 199.269531 C 492.710938 188.894531 489.019531 178.453125 481.335938 171.316406 C 473.652344 164.195312 462.964844 161.296875 452.734375 163.566406 C 428.847656 164.15625 414.957031 183.980469 411.066406 223.03125 C 409.265625 231.929688 405.023438 239.007812 398.339844 244.25 C 390.378906 253.40625 388.960938 264.085938 394.085938 276.265625 C 398.425781 286.839844 396.472656 297.882812 388.242188 309.402344 C 397.328125 336.496094 416.679688 349.292969 446.3125 347.785156 C 471.410156 349.550781 495.558594 337.859375 509.746094 317.070312 C 517.105469 308.601562 520.480469 299.953125 519.859375 291.121094 C 514.519531 282.0625 512.84375 273.957031 514.816406 266.804688 C 522.347656 252.167969 520.269531 240.722656 508.589844 232.503906 C 496.265625 221.375 490.46875 210.292969 491.222656 199.269531 Z M 491.222656 199.269531 "/><path style=" stroke:none;fill-rule:evenodd;fill:#f2a883;fill-opacity:1;" d="M 494.089844 522.46875 C 480.390625 519.503906 473.539062 518.015625 473.539062 518.015625 C 471.105469 539.320312 469.894531 549.972656 469.894531 549.972656 C 445.890625 549.5625 433.402344 554.179688 432.429688 563.839844 C 472.546875 564.171875 492.605469 564.335938 492.605469 564.335938 C 494.347656 558.554688 493.851562 554.761719 491.117188 552.9375 C 493.101562 532.625 494.089844 522.46875 494.089844 522.46875 Z M 494.089844 522.46875 "/><path style=" stroke:none;fill-rule:evenodd;fill:#000000;fill-opacity:1;" d="M 491.117188 552.9375 C 474.203125 560.976562 459.457031 560.605469 446.902344 551.824219 C 437.84375 553.976562 433.023438 557.984375 432.429688 563.839844 C 472.546875 564.171875 492.605469 564.335938 492.605469 564.335938 C 494.347656 558.554688 493.851562 554.761719 491.117188 552.9375 Z M 491.117188 552.9375 "/><path style=" stroke:none;fill-rule:evenodd;fill:#f2a883;fill-opacity:1;" d="M 423.984375 522.46875 C 410.273438 519.503906 403.429688 518.015625 403.429688 518.015625 C 401 539.320312 399.777344 549.972656 399.777344 549.972656 C 375.773438 549.5625 363.296875 554.179688 362.324219 563.839844 C 402.4375 564.171875 422.496094 564.335938 422.496094 564.335938 C 424.242188 558.554688 423.746094 554.761719 421.007812 552.9375 C 422.992188 532.625 423.984375 522.46875 423.984375 522.46875 Z M 423.984375 522.46875 "/><path style=" stroke:none;fill-rule:evenodd;fill:#000000;fill-opacity:1;" d="M 421.007812 552.9375 C 404.089844 560.976562 389.351562 560.605469 376.785156 551.824219 C 367.730469 553.976562 362.914062 557.984375 362.324219 563.839844 C 402.4375 564.171875 422.496094 564.335938 422.496094 564.335938 C 424.242188 558.554688 423.746094 554.761719 421.007812 552.9375 Z M 421.007812 552.9375 "/><path style=" stroke:none;fill-rule:evenodd;fill:#f2a883;fill-opacity:1;" d="M 535.101562 294.9375 C 537.027344 291.902344 541.453125 288.890625 543.40625 285.296875 C 546.199219 279.867188 543.300781 275.960938 534.703125 273.546875 C 529.46875 271.867188 529.535156 283.351562 528.125 286.792969 Z M 535.101562 294.9375 "/><path style=" stroke:none;fill-rule:evenodd;fill:#f2a883;fill-opacity:1;" d="M 441.257812 239.042969 C 430.429688 228.308594 425.796875 212.792969 428.960938 197.867188 C 440.484375 194.796875 446.882812 189.683594 448.140625 182.515625 C 452.363281 190.65625 459.226562 196.246094 468.734375 199.277344 C 470.660156 206.972656 471.621094 210.816406 471.621094 210.816406 C 471.402344 208.234375 472.566406 205.734375 474.671875 204.226562 C 476.777344 202.730469 479.523438 202.464844 481.890625 203.523438 C 484.691406 206.660156 485.332031 211.171875 483.519531 214.964844 C 481.707031 218.761719 477.789062 221.085938 473.585938 220.867188 C 470.574219 228.972656 466.636719 234.820312 461.785156 238.394531 C 463.15625 248.398438 466.035156 250.90625 474.652344 252.71875 C 459.496094 277.378906 436.0625 267.148438 435.492188 251.84375 C 443.433594 245.03125 441.257812 239.042969 441.257812 239.042969 Z M 441.257812 239.042969 "/><path style=" stroke:none;fill-rule:evenodd;fill:#003348;fill-opacity:1;" d="M 483.898438 334.558594 C 450.066406 336.6875 428.082031 337.125 428.082031 337.125 C 401.90625 395.726562 394.839844 462.515625 396.765625 536.25 C 406.472656 538.0625 416.816406 538.101562 427.796875 536.363281 C 437.777344 462.21875 447.054688 414.214844 455.644531 392.347656 C 462.6875 434.832031 465.644531 482.199219 464.5 534.46875 C 478.046875 538.28125 489.964844 538.28125 500.257812 534.46875 C 501.792969 433.546875 496.339844 366.90625 483.898438 334.558594 Z M 483.898438 334.558594 "/><path style=" stroke:none;fill-rule:evenodd;fill:#8949e5;fill-opacity:1;" d="M 507.953125 283.882812 C 507.734375 283.386719 507.523438 282.902344 507.304688 282.414062 L 507.285156 282.386719 C 501.535156 269.695312 495.894531 261.207031 490.363281 256.933594 C 486.199219 255 479.667969 253.386719 470.78125 252.109375 C 457.960938 269.808594 446.140625 271.878906 435.492188 251.84375 C 426.292969 252.03125 419.683594 256.113281 415.671875 264.058594 L 407.445312 280.515625 C 404.414062 286.582031 402.582031 288.625 402.582031 288.625 C 393.992188 280.46875 388.128906 272.421875 385.003906 264.46875 L 370.292969 270.113281 C 370.40625 270.199219 370.523438 270.285156 370.636719 270.363281 C 380.132812 294.25 389.386719 310.691406 398.414062 319.710938 C 401.046875 321.90625 404.90625 321.753906 407.359375 319.359375 C 411.257812 314.589844 415.183594 310.25 418.445312 305.855469 L 418.503906 305.988281 C 419.285156 304.804688 420.046875 303.644531 420.78125 302.480469 L 420.78125 302.46875 C 422.066406 300.429688 423.269531 298.40625 424.375 296.414062 C 421.78125 316.144531 421.046875 330.886719 422.171875 340.652344 C 443.878906 348.253906 467.589844 347.796875 488.980469 339.375 C 488.324219 304.347656 488 286.839844 488 286.839844 C 489.410156 292.066406 490.820312 296.664062 492.222656 300.628906 L 492.269531 300.582031 C 496.074219 310.183594 500.660156 314.246094 504.300781 315.601562 C 514.816406 319.234375 525.953125 312.246094 537.695312 294.613281 L 527.859375 285.667969 C 524.367188 291.390625 518.828125 292.113281 512.851562 295.109375 C 511.433594 291.351562 509.496094 287.289062 507.953125 283.882812 Z M 507.953125 283.882812 "/><path style=" stroke:none;fill-rule:nonzero;fill:#000000;fill-opacity:1;" d="M 512.386719 288.832031 L 551.796875 289.121094 L 532.148438 278.628906 Z M 525.808594 269.3125 C 525.902344 267.851562 526.5625 266.554688 527.5625 265.632812 C 528.5625 264.707031 529.90625 264.164062 531.375 264.191406 C 532.84375 264.21875 534.160156 264.820312 535.121094 265.785156 L 535.132812 265.785156 C 536.085938 266.746094 536.695312 268.074219 536.722656 269.542969 C 536.753906 271 536.199219 272.355469 535.285156 273.347656 C 534.625 274.0625 533.789062 274.59375 532.835938 274.882812 L 533.160156 276.636719 L 556.820312 289.273438 C 557.183594 289.453125 557.429688 289.835938 557.429688 290.273438 C 557.429688 290.882812 556.925781 291.390625 556.316406 291.378906 L 507.90625 291.027344 C 507.484375 291.046875 507.066406 290.828125 506.855469 290.425781 C 506.570312 289.871094 506.789062 289.203125 507.34375 288.917969 L 530.910156 276.75 L 530.203125 272.945312 L 531.460938 272.871094 C 532.328125 272.820312 533.089844 272.429688 533.636719 271.839844 C 534.179688 271.238281 534.511719 270.445312 534.492188 269.578125 C 534.472656 268.722656 534.113281 267.9375 533.550781 267.367188 C 532.976562 266.792969 532.195312 266.441406 531.328125 266.421875 C 530.46875 266.402344 529.667969 266.726562 529.078125 267.273438 C 528.488281 267.824219 528.097656 268.585938 528.046875 269.445312 Z M 525.808594 269.3125 "/><path style=" stroke:none;fill-rule:evenodd;fill:#e766a7;fill-opacity:1;" d="M 548.820312 284.1875 C 550.546875 283.722656 551.851562 284.417969 552.75 286.257812 C 552.367188 301.125 555.714844 309.945312 562.789062 312.75 C 565.457031 325.203125 565.542969 341.128906 561.207031 353.707031 C 561.207031 353.707031 567.5625 377.511719 582.113281 431.933594 C 549.601562 445.113281 519.871094 446.191406 492.910156 435.15625 C 492.910156 435.15625 496.273438 408.1875 503.003906 354.242188 C 498.417969 337.046875 498.582031 323.136719 503.480469 312.492188 C 509.707031 305.398438 512.59375 296.308594 512.148438 285.238281 C 513.308594 283.09375 514.910156 282.359375 516.933594 283.035156 C 518.011719 288.746094 519.785156 292.160156 522.261719 293.285156 C 529.925781 297.835938 536.820312 297.625 542.96875 292.65625 C 545.789062 290.539062 547.746094 287.71875 548.820312 284.1875 Z M 548.820312 284.1875 "/><path style=" stroke:none;fill-rule:evenodd;fill:#003348;fill-opacity:1;" d="M 562.875 347.785156 C 555.683594 347.851562 535.265625 348.0625 501.613281 348.425781 C 501.890625 349.730469 502.195312 351.066406 502.539062 352.421875 C 533.472656 352.183594 553.214844 352.039062 561.769531 351.972656 C 562.1875 350.609375 562.558594 349.207031 562.875 347.785156 Z M 562.875 347.785156 "/><path style=" stroke:none;fill-rule:evenodd;fill:#003348;fill-opacity:1;" d="M 562.007812 356.691406 C 553.664062 356.75 533.882812 356.902344 502.644531 357.140625 C 502.5 358.285156 502.355469 359.421875 502.222656 360.535156 C 533.949219 360.773438 554.265625 360.925781 563.148438 360.992188 C 562.683594 359.238281 562.300781 357.800781 562.007812 356.691406 Z M 562.007812 356.691406 "/><path style=" stroke:none;fill-rule:evenodd;fill:#e89e79;fill-opacity:1;" d="M 540.824219 277.714844 C 540.421875 275.320312 539.125 274.664062 536.925781 275.757812 C 537.46875 274.9375 537.285156 273.84375 536.503906 273.25 C 535.722656 272.667969 534.617188 272.785156 533.976562 273.527344 C 532.148438 275.414062 531.480469 278.019531 530.71875 280.5 C 530.59375 281.042969 530.773438 281.605469 531.183594 281.976562 C 531.59375 282.347656 532.167969 282.460938 532.691406 282.292969 C 532.347656 282.949219 532.492188 283.761719 533.035156 284.273438 C 533.585938 284.78125 534.40625 284.855469 535.035156 284.464844 C 534.769531 285.152344 535 285.945312 535.589844 286.382812 C 536.179688 286.832031 536.992188 286.832031 537.582031 286.382812 C 537.535156 287.171875 537.886719 287.9375 538.527344 288.402344 C 539.164062 288.871094 539.992188 288.984375 540.726562 288.710938 C 543.730469 285.621094 545.714844 283.226562 546.675781 281.527344 C 547.429688 280.898438 545.265625 279.078125 544.53125 279.648438 C 543.996094 277.617188 542.769531 276.96875 540.824219 277.714844 Z M 540.824219 277.714844 "/><path style=" stroke:none;fill-rule:evenodd;fill:#e1826c;fill-opacity:1;" d="M 533.28125 281.386719 C 533.550781 279.402344 534.894531 277.867188 536.226562 277.597656 C 535.464844 278.496094 534.113281 280.039062 533.28125 281.386719 Z M 533.28125 281.386719 "/><path style=" stroke:none;fill-rule:evenodd;fill:#e1826c;fill-opacity:1;" d="M 536.105469 283.253906 C 536.371094 281.28125 537.726562 279.734375 539.058594 279.476562 C 538.296875 280.375 536.941406 281.910156 536.105469 283.253906 Z M 536.105469 283.253906 "/><path style=" stroke:none;fill-rule:evenodd;fill:#e1826c;fill-opacity:1;" d="M 538.667969 284.914062 C 538.9375 282.941406 540.289062 281.394531 541.625 281.128906 C 540.859375 282.035156 539.507812 283.570312 538.667969 284.914062 Z M 538.667969 284.914062 "/><path style=" stroke:none;fill-rule:evenodd;fill:#e3bbaf;fill-opacity:1;" d="M 532.683594 281.40625 C 532.632812 280.765625 532.308594 280.414062 531.71875 280.296875 C 531.300781 280.480469 531.175781 280.824219 531.335938 281.320312 C 531.699219 281.765625 532.320312 282.5 532.683594 281.40625 Z M 532.683594 281.40625 "/><path style=" stroke:none;fill-rule:evenodd;fill:#e3bbaf;fill-opacity:1;" d="M 534.808594 283.417969 C 534.761719 282.664062 534.378906 282.261719 533.683594 282.128906 C 533.195312 282.339844 533.042969 282.730469 533.234375 283.3125 C 533.664062 283.84375 534.386719 284.703125 534.808594 283.417969 Z M 534.808594 283.417969 "/><path style=" stroke:none;fill-rule:evenodd;fill:#e3bbaf;fill-opacity:1;" d="M 537.324219 285.332031 C 537.277344 284.589844 536.894531 284.179688 536.199219 284.046875 C 535.714844 284.253906 535.570312 284.65625 535.761719 285.226562 C 536.179688 285.761719 536.90625 286.621094 537.324219 285.332031 Z M 537.324219 285.332031 "/><path style=" stroke:none;fill-rule:evenodd;fill:#e3bbaf;fill-opacity:1;" d="M 540.261719 287.527344 C 540.195312 286.667969 539.765625 286.191406 538.953125 286.039062 C 538.402344 286.285156 538.230469 286.734375 538.449219 287.402344 C 538.9375 288.023438 539.773438 289.003906 540.261719 287.527344 Z M 540.261719 287.527344 "/><path style=" stroke:none;fill-rule:evenodd;fill:#b32e2f;fill-opacity:1;" d="M 498.398438 111.375 L 544.933594 111.375 C 546.742188 111.375 548.230469 112.851562 548.230469 114.664062 L 548.230469 122.789062 C 548.230469 124.601562 546.742188 126.089844 544.933594 126.089844 L 498.398438 126.089844 C 496.589844 126.089844 495.113281 124.601562 495.113281 122.789062 L 495.113281 114.664062 C 495.113281 112.851562 496.589844 111.375 498.398438 111.375 Z M 498.398438 111.375 "/><path style=" stroke:none;fill-rule:evenodd;fill:#fcffff;fill-opacity:1;" d="M 377.222656 110.726562 C 384.535156 110.726562 390.476562 116.667969 390.476562 123.980469 C 390.476562 131.304688 384.535156 137.246094 377.222656 137.246094 C 369.902344 137.246094 363.964844 131.304688 363.964844 123.980469 C 363.964844 116.667969 369.902344 110.726562 377.222656 110.726562 Z M 377.222656 110.726562 "/><path style=" stroke:none;fill-rule:evenodd;fill:#fcffff;fill-opacity:1;" d="M 370.503906 376.136719 C 375.679688 376.136719 379.875 380.332031 379.875 385.511719 C 379.875 390.6875 375.679688 394.886719 370.503906 394.886719 C 365.324219 394.886719 361.132812 390.6875 361.132812 385.511719 C 361.132812 380.332031 365.324219 376.136719 370.503906 376.136719 Z M 370.503906 376.136719 "/><path style=" stroke:none;fill-rule:nonzero;fill:#fcffff;fill-opacity:1;" d="M 384 379.789062 L 429.332031 379.789062 L 429.332031 381.429688 L 384 381.429688 Z M 384 379.789062 "/><path style=" stroke:none;fill-rule:nonzero;fill:#fcffff;fill-opacity:1;" d="M 384 384.921875 L 414.574219 384.921875 L 414.574219 386.558594 L 384 386.558594 Z M 384 384.921875 "/><path style=" stroke:none;fill-rule:nonzero;fill:#fcffff;fill-opacity:1;" d="M 384 390.058594 L 402.964844 390.058594 L 402.964844 391.699219 L 384 391.699219 Z M 384 390.058594 "/><path style=" stroke:none;fill-rule:nonzero;fill:#fcffff;fill-opacity:1;" d="M 406.519531 390.058594 L 431.726562 390.058594 L 431.726562 391.699219 L 406.519531 391.699219 Z M 406.519531 390.058594 "/><path style=" stroke:none;fill-rule:nonzero;fill:#fcffff;fill-opacity:1;" d="M 417.042969 384.921875 L 447.617188 384.921875 L 447.617188 386.558594 L 417.042969 386.558594 Z M 417.042969 384.921875 "/><path style=" stroke:none;fill-rule:evenodd;fill:#fcffff;fill-opacity:1;" d="M 370.503906 406.222656 C 375.679688 406.222656 379.875 410.417969 379.875 415.597656 C 379.875 420.777344 375.679688 424.972656 370.503906 424.972656 C 365.324219 424.972656 361.132812 420.777344 361.132812 415.597656 C 361.132812 410.417969 365.324219 406.222656 370.503906 406.222656 Z M 370.503906 406.222656 "/><path style=" stroke:none;fill-rule:nonzero;fill:#fcffff;fill-opacity:1;" d="M 384 409.875 L 429.332031 409.875 L 429.332031 411.515625 L 384 411.515625 Z M 384 409.875 "/><path style=" stroke:none;fill-rule:nonzero;fill:#fcffff;fill-opacity:1;" d="M 384 415.015625 L 414.574219 415.015625 L 414.574219 416.648438 L 384 416.648438 Z M 384 415.015625 "/><path style=" stroke:none;fill-rule:nonzero;fill:#fcffff;fill-opacity:1;" d="M 384 420.148438 L 402.964844 420.148438 L 402.964844 421.785156 L 384 421.785156 Z M 384 420.148438 "/><path style=" stroke:none;fill-rule:nonzero;fill:#fcffff;fill-opacity:1;" d="M 406.519531 420.148438 L 431.726562 420.148438 L 431.726562 421.785156 L 406.519531 421.785156 Z M 406.519531 420.148438 "/><path style=" stroke:none;fill-rule:evenodd;fill:#fcffff;fill-opacity:1;" d="M 370.503906 438.007812 C 375.679688 438.007812 379.875 442.203125 379.875 447.382812 C 379.875 452.558594 375.679688 456.757812 370.503906 456.757812 C 365.324219 456.757812 361.132812 452.558594 361.132812 447.382812 C 361.132812 442.203125 365.324219 438.007812 370.503906 438.007812 Z M 370.503906 438.007812 "/><path style=" stroke:none;fill-rule:nonzero;fill:#fcffff;fill-opacity:1;" d="M 384 441.652344 L 429.332031 441.652344 L 429.332031 443.292969 L 384 443.292969 Z M 384 441.652344 "/><path style=" stroke:none;fill-rule:nonzero;fill:#fcffff;fill-opacity:1;" d="M 384 446.792969 L 414.574219 446.792969 L 414.574219 448.429688 L 384 448.429688 Z M 384 446.792969 "/><path style=" stroke:none;fill-rule:nonzero;fill:#fcffff;fill-opacity:1;" d="M 384 451.929688 L 402.964844 451.929688 L 402.964844 453.5625 L 384 453.5625 Z M 384 451.929688 "/><path style=" stroke:none;fill-rule:evenodd;fill:#fcffff;fill-opacity:1;" d="M 370.503906 348.367188 C 375.679688 348.367188 379.875 352.5625 379.875 357.742188 C 379.875 362.921875 375.679688 367.117188 370.503906 367.117188 C 365.324219 367.117188 361.132812 362.921875 361.132812 357.742188 C 361.132812 352.5625 365.324219 348.367188 370.503906 348.367188 Z M 370.503906 348.367188 "/><path style=" stroke:none;fill-rule:nonzero;fill:#fcffff;fill-opacity:1;" d="M 384 352.011719 L 429.332031 352.011719 L 429.332031 353.652344 L 384 353.652344 Z M 384 352.011719 "/><path style=" stroke:none;fill-rule:nonzero;fill:#fcffff;fill-opacity:1;" d="M 384 357.152344 L 414.574219 357.152344 L 414.574219 358.789062 L 384 358.789062 Z M 384 357.152344 "/><path style=" stroke:none;fill-rule:nonzero;fill:#fcffff;fill-opacity:1;" d="M 384 362.28125 L 402.964844 362.28125 L 402.964844 363.921875 L 384 363.921875 Z M 384 362.28125 "/><path style=" stroke:none;fill-rule:nonzero;fill:#fcffff;fill-opacity:1;" d="M 417.042969 357.152344 L 447.617188 357.152344 L 447.617188 358.789062 L 417.042969 358.789062 Z M 417.042969 357.152344 "/><path style=" stroke:none;fill-rule:evenodd;fill:#59c6c9;fill-opacity:1;" d="M 286.742188 312.902344 C 269.640625 318.453125 260.269531 336.820312 265.808594 353.9375 C 270.832031 369.433594 286.363281 378.578125 301.949219 376.0625 L 328.699219 386.644531 L 310.976562 373.21875 C 325.410156 366.25 332.847656 349.523438 327.765625 333.84375 C 322.21875 316.726562 303.855469 307.351562 286.742188 312.902344 Z M 286.742188 312.902344 "/><path style=" stroke:none;fill-rule:evenodd;fill:#fcffff;fill-opacity:1;" d="M 304.410156 352.515625 C 300.9375 342.511719 299.203125 337.515625 299.203125 337.515625 C 294.980469 334.253906 292.570312 331.9375 291.949219 330.5625 C 291.101562 325.089844 289.203125 323.421875 286.257812 325.566406 C 283.691406 327.894531 283.835938 331.871094 286.6875 337.507812 C 280.757812 339.566406 277.792969 340.605469 277.792969 340.605469 C 276.722656 341.328125 276.09375 342.542969 276.085938 343.828125 C 276.074219 345.117188 276.695312 346.328125 277.746094 347.082031 C 277.183594 347.984375 277.144531 349.128906 277.648438 350.074219 C 278.15625 351.019531 279.117188 351.621094 280.183594 351.667969 C 280.03125 352.613281 280.269531 353.574219 280.851562 354.335938 C 281.433594 355.101562 282.300781 355.585938 283.253906 355.683594 C 282.855469 356.828125 283.121094 358.09375 283.949219 358.972656 C 284.769531 359.847656 286.027344 360.191406 287.183594 359.859375 C 297.390625 356.484375 302.492188 354.804688 302.492188 354.804688 C 303.808594 354.472656 304.445312 353.707031 304.410156 352.515625 Z M 304.410156 352.515625 "/><path style=" stroke:none;fill-rule:evenodd;fill:#314550;fill-opacity:1;" d="M 308.585938 333.320312 L 300.082031 336.257812 L 306.039062 353.554688 L 314.542969 350.617188 C 316.289062 350.015625 317.210938 348.109375 316.621094 346.363281 L 312.835938 335.390625 C 312.234375 333.652344 310.320312 332.71875 308.585938 333.320312 Z M 308.585938 333.320312 "/><path style=" stroke:none;fill-rule:evenodd;fill:#59c6c9;fill-opacity:1;" d="M 261.15625 137.398438 L 300.441406 120.042969 C 303.398438 118.734375 306.886719 120.089844 308.195312 123.046875 L 318.832031 147.152344 C 320.140625 150.109375 318.785156 153.601562 315.828125 154.90625 L 292.472656 165.222656 L 302.433594 179.28125 L 286.5625 167.835938 L 276.542969 172.261719 C 273.589844 173.570312 270.109375 172.214844 268.800781 169.257812 L 258.152344 145.152344 C 256.847656 142.183594 258.203125 138.703125 261.15625 137.398438 Z M 261.15625 137.398438 "/><path style=" stroke:none;fill-rule:evenodd;fill:#fcffff;fill-opacity:1;" d="M 288.726562 133.136719 C 285.761719 135.320312 284.484375 139.144531 285.550781 142.671875 C 284.675781 139.5625 281.796875 137.457031 278.574219 137.558594 C 264.21875 138.046875 276.230469 157.625 293.816406 156.890625 C 301.804688 144.644531 300.84375 124.246094 288.726562 133.136719 Z M 288.726562 133.136719 "/><path style=" stroke:none;fill-rule:evenodd;fill:#59c6c9;fill-opacity:1;" d="M 659.207031 266.355469 L 619.625 235.183594 C 616.652344 232.835938 612.292969 233.351562 609.949219 236.328125 L 590.824219 260.625 C 588.480469 263.601562 588.996094 267.957031 591.976562 270.304688 L 615.507812 288.832031 L 600.089844 301.90625 L 621.464844 293.535156 L 631.550781 301.476562 C 634.535156 303.824219 638.882812 303.308594 641.226562 300.324219 L 660.351562 276.035156 C 662.695312 273.058594 662.179688 268.703125 659.207031 266.355469 Z M 659.207031 266.355469 "/><path style=" stroke:none;fill-rule:evenodd;fill:#fcffff;fill-opacity:1;" d="M 629.121094 253.472656 C 631.855469 256.820312 632.191406 261.53125 629.949219 265.230469 C 631.847656 261.960938 635.734375 260.394531 639.367188 261.464844 C 655.535156 266.203125 636.183594 284.941406 616.410156 278.980469 C 610.902344 262.734375 617.945312 239.835938 629.121094 253.472656 Z M 629.121094 253.472656 "/><path style=" stroke:none;fill-rule:evenodd;fill:#59c6c9;fill-opacity:1;" d="M 365.210938 34.988281 L 466.054688 34.988281 C 471.257812 34.988281 475.519531 39.25 475.519531 44.46875 L 475.519531 54.851562 C 475.519531 60.058594 471.257812 64.320312 466.054688 64.320312 L 365.210938 64.320312 C 360.007812 64.320312 355.746094 60.058594 355.746094 54.851562 L 355.746094 44.46875 C 355.746094 39.25 360.007812 34.988281 365.210938 34.988281 Z M 365.210938 34.988281 "/><path style=" stroke:none;fill-rule:evenodd;fill:#ffcc00;fill-opacity:1;" d="M 369.339844 40.75 L 372.066406 46.449219 L 377.984375 47.03125 L 373.402344 51.390625 L 374.679688 57.199219 L 369.128906 54.183594 L 363.992188 57.199219 L 365.136719 50.980469 L 360.691406 47.03125 L 366.957031 46.203125 Z M 369.339844 40.75 "/><path style=" stroke:none;fill-rule:evenodd;fill:#ffcc00;fill-opacity:1;" d="M 392.6875 40.75 L 395.414062 46.449219 L 401.332031 47.03125 L 396.757812 51.390625 L 398.035156 57.199219 L 392.476562 54.183594 L 387.347656 57.199219 L 388.492188 50.980469 L 384.039062 47.03125 L 390.304688 46.203125 Z M 392.6875 40.75 "/><path style=" stroke:none;fill-rule:evenodd;fill:#ffcc00;fill-opacity:1;" d="M 416.042969 40.75 L 418.769531 46.449219 L 424.691406 47.03125 L 420.105469 51.390625 L 421.382812 57.199219 L 415.832031 54.183594 L 410.695312 57.199219 L 411.847656 50.980469 L 407.394531 47.03125 L 413.660156 46.203125 Z M 416.042969 40.75 "/><path style=" stroke:none;fill-rule:evenodd;fill:#ffcc00;fill-opacity:1;" d="M 439.390625 40.75 L 442.117188 46.449219 L 448.035156 47.03125 L 443.460938 51.390625 L 444.738281 57.199219 L 439.179688 54.183594 L 434.050781 57.199219 L 435.195312 50.980469 L 430.753906 47.03125 L 437.007812 46.203125 Z M 439.390625 40.75 "/><path style=" stroke:none;fill-rule:evenodd;fill:#ffcc00;fill-opacity:1;" d="M 462.746094 40.75 L 465.472656 46.449219 L 471.394531 47.03125 L 466.808594 51.390625 L 468.085938 57.199219 L 462.535156 54.183594 L 457.398438 57.199219 L 458.550781 50.980469 L 454.097656 47.03125 L 460.363281 46.203125 Z M 462.746094 40.75 "/></g></svg>