<svg xmlns="http://www.w3.org/2000/svg" xmlns:xlink="http://www.w3.org/1999/xlink" width="1280" zoomAndPan="magnify" viewBox="0 0 960 599.999999" height="800" preserveAspectRatio="xMidYMid meet" version="1.2"><defs><clipPath id="bca2eccbc4"><path d="M 449 200 L 788.546875 200 L 788.546875 434 L 449 434 Z M 449 200 "/></clipPath><clipPath id="c50a77d129"><path d="M 171.296875 125 L 698 125 L 698 589.957031 L 171.296875 589.957031 Z M 171.296875 125 "/></clipPath><clipPath id="a91ff507b8"><path d="M 206 10.207031 L 348 10.207031 L 348 152 L 206 152 Z M 206 10.207031 "/></clipPath></defs><g id="3dcd281fe4"><path style=" stroke:none;fill-rule:nonzero;fill:#ffffff;fill-opacity:1;" d="M 540.300781 247.828125 L 521.179688 239.398438 L 605.417969 48.40625 C 606.011719 47.039062 606.328125 45.636719 606.328125 44.203125 C 606.328125 38.433594 601.644531 33.75 595.875 33.75 C 591.757812 33.75 588.011719 36.207031 586.324219 40.007812 L 507.574219 218.503906 L 488.453125 210.070312 L 567.214844 31.566406 C 572.246094 20.191406 583.488281 12.855469 595.875 12.855469 C 613.164062 12.855469 627.222656 26.917969 627.222656 44.203125 C 627.222656 48.558594 626.308594 52.820312 624.527344 56.851562 L 540.300781 247.816406 Z M 540.300781 247.828125 "/><path style=" stroke:none;fill-rule:nonzero;fill:#ffffff;fill-opacity:1;" d="M 419.273438 448.183594 L 409.234375 389.652344 L 435.570312 329.96875 L 454.683594 338.390625 L 430.886719 392.324219 L 434.265625 412.023438 L 449.914062 400.972656 L 495.796875 296.929688 L 514.917969 305.359375 L 466.6875 414.707031 Z M 419.273438 448.183594 "/><path style=" stroke:none;fill-rule:nonzero;fill:#ffffff;fill-opacity:1;" d="M 433.953125 347.179688 C 413.796875 347.179688 397.390625 330.773438 397.390625 310.617188 L 397.390625 247.9375 C 397.390625 240.753906 399.488281 233.789062 403.476562 227.78125 L 459.855469 141.109375 C 469.523438 126.226562 485.898438 117.347656 503.640625 117.347656 L 536.195312 117.347656 L 536.195312 138.242188 L 503.640625 138.242188 C 492.992188 138.242188 483.171875 143.566406 477.359375 152.496094 L 420.933594 239.234375 C 419.1875 241.886719 418.285156 244.871094 418.285156 247.9375 L 418.285156 310.617188 C 418.285156 319.257812 425.3125 326.285156 433.953125 326.285156 C 442.589844 326.285156 449.621094 319.257812 449.621094 310.617188 L 449.621094 237.484375 L 470.511719 237.484375 L 470.511719 310.617188 C 470.511719 330.773438 454.105469 347.179688 433.953125 347.179688 Z M 433.953125 347.179688 "/><path style=" stroke:none;fill-rule:nonzero;fill:#ffffff;fill-opacity:1;" d="M 775.230469 319.105469 L 734.625 292.027344 L 644.5 156.84375 C 636.71875 145.195312 623.722656 138.230469 609.730469 138.230469 L 581.839844 138.230469 L 581.839844 117.335938 L 609.730469 117.335938 C 630.722656 117.335938 650.222656 127.777344 661.882812 145.25 L 749.683594 276.96875 L 786.820312 301.71875 Z M 775.230469 319.105469 "/><g clip-rule="nonzero" clip-path="url(#bca2eccbc4)"><path style=" stroke:none;fill-rule:nonzero;fill:#ffffff;fill-opacity:1;" d="M 772.785156 433.65625 C 771.894531 432.722656 749.78125 409.863281 710.808594 409.863281 C 696.835938 409.863281 690.316406 412.035156 682.777344 414.542969 C 674.671875 417.25 665.488281 420.3125 648.128906 420.3125 C 611.828125 420.3125 577.675781 404.308594 554.4375 376.40625 L 458.105469 260.726562 C 452.554688 254 449.628906 245.980469 449.628906 237.496094 C 449.628906 217.339844 466.035156 200.933594 486.191406 200.933594 C 496.113281 200.933594 505.152344 204.757812 512.34375 211.996094 L 599.09375 293.375 L 584.792969 308.621094 L 497.785156 226.976562 C 494.199219 223.382812 490.601562 221.828125 486.191406 221.828125 C 477.554688 221.828125 470.523438 228.859375 470.523438 237.496094 C 470.523438 242.003906 472.511719 245.363281 474.1875 247.394531 L 570.496094 363.054688 C 589.75 386.175781 618.050781 399.429688 648.128906 399.429688 C 662.101562 399.429688 668.617188 397.257812 676.160156 394.746094 C 684.265625 392.042969 693.445312 388.980469 710.808594 388.980469 C 759.203125 388.980469 786.929688 418.183594 788.09375 419.421875 L 772.785156 433.667969 Z M 772.785156 433.65625 "/></g><path style=" stroke:none;fill-rule:nonzero;fill:#ffffff;fill-opacity:1;" d="M 527.980469 388.96875 C 515.710938 388.96875 504.335938 382.863281 497.546875 372.648438 L 479.5625 345.722656 L 496.949219 334.109375 L 514.929688 361.054688 C 517.851562 365.464844 522.722656 368.074219 527.96875 368.074219 C 535.195312 368.074219 541.441406 363.183594 543.179688 356.199219 L 563.464844 361.238281 C 559.402344 377.558594 544.820312 388.96875 527.96875 388.96875 Z M 527.980469 388.96875 "/><g clip-rule="nonzero" clip-path="url(#c50a77d129)"><path style=" stroke:none;fill-rule:nonzero;fill:#ffffff;fill-opacity:1;" d="M 588.878906 589.605469 L 171.632812 424.898438 L 404.398438 125.636719 L 464.460938 149.347656 L 456.789062 168.785156 L 411.277344 150.824219 L 205.261719 415.707031 L 582 564.429688 L 680.601562 437.65625 L 697.085938 450.488281 Z M 588.878906 589.605469 "/></g><path style=" stroke:none;fill-rule:nonzero;fill:#ffffff;fill-opacity:1;" d="M 247.726562 412.167969 L 255.394531 392.746094 L 295.292969 408.492188 L 287.625 427.917969 Z M 247.726562 412.167969 "/><path style=" stroke:none;fill-rule:nonzero;fill:#ffffff;fill-opacity:1;" d="M 311.199219 437.289062 L 318.867188 417.867188 L 336.675781 424.898438 L 329.003906 444.324219 Z M 311.199219 437.289062 "/><path style=" stroke:none;fill-rule:nonzero;fill:#ffffff;fill-opacity:1;" d="M 217.542969 184.605469 L 228.261719 166.671875 L 295.660156 206.960938 L 284.941406 224.894531 Z M 217.542969 184.605469 "/><g clip-rule="nonzero" clip-path="url(#a91ff507b8)"><path style=" stroke:none;fill-rule:nonzero;fill:#ffffff;fill-opacity:1;" d="M 206.628906 24.929688 L 221.402344 10.15625 L 347.800781 136.554688 L 333.027344 151.328125 Z M 206.628906 24.929688 "/></g><path style=" stroke:none;fill-rule:nonzero;fill:#ffffff;fill-opacity:1;" d="M 363.738281 19.5625 L 383.136719 11.804688 L 410.167969 79.386719 L 390.769531 87.144531 Z M 363.738281 19.5625 "/><path style=" stroke:none;fill-rule:nonzero;fill:#ffffff;fill-opacity:1;" d="M 480.964844 23.308594 L 501.859375 23.308594 L 501.859375 85.992188 L 480.964844 85.992188 Z M 480.964844 23.308594 "/></g></svg>