<svg xmlns="http://www.w3.org/2000/svg" xmlns:xlink="http://www.w3.org/1999/xlink" width="1280" zoomAndPan="magnify" viewBox="0 0 960 599.999999" height="800" preserveAspectRatio="xMidYMid meet" version="1.2"><defs><clipPath id="9a27b9d2ec"><path d="M 187.222656 8 L 770 8 L 770 592 L 187.222656 592 Z M 187.222656 8 "/></clipPath></defs><g id="660c224b5e"><g clip-rule="nonzero" clip-path="url(#9a27b9d2ec)"><path style=" stroke:none;fill-rule:nonzero;fill:#ffffff;fill-opacity:1;" d="M 756.871094 520.734375 L 595.082031 358.941406 L 580.382812 373.648438 L 546.175781 339.4375 C 575.058594 304.425781 592.433594 259.574219 592.433594 210.746094 C 592.433594 99.027344 501.542969 8.148438 389.828125 8.148438 C 278.113281 8.148438 187.234375 99.035156 187.234375 210.746094 C 187.234375 322.460938 278.113281 413.332031 389.828125 413.332031 C 437.78125 413.332031 481.859375 396.558594 516.582031 368.617188 L 551.007812 403.035156 L 536.308594 417.730469 L 698.097656 579.519531 C 706.207031 587.628906 716.851562 591.6875 727.484375 591.6875 C 738.117188 591.6875 748.746094 587.628906 756.867188 579.519531 C 773.101562 563.28125 773.101562 536.964844 756.871094 520.734375 Z M 228.800781 210.738281 C 228.800781 121.945312 301.039062 49.703125 389.828125 49.703125 C 478.628906 49.703125 550.867188 121.945312 550.867188 210.738281 C 550.867188 299.53125 478.628906 371.765625 389.828125 371.765625 C 301.039062 371.765625 228.800781 299.535156 228.800781 210.738281 Z M 228.800781 210.738281 "/></g><path style=" stroke:none;fill-rule:nonzero;fill:#ffffff;fill-opacity:1;" d="M 464.710938 135.394531 C 503.484375 174.160156 520.875 224.917969 515.394531 269.894531 C 522.621094 252.945312 526.621094 234.296875 526.621094 214.710938 C 526.621094 136.957031 463.589844 73.933594 385.84375 73.933594 C 366.953125 73.933594 348.945312 77.683594 332.480469 84.425781 C 376.886719 79.789062 426.601562 97.285156 464.710938 135.394531 Z M 464.710938 135.394531 "/></g></svg>