<svg xmlns="http://www.w3.org/2000/svg" xmlns:xlink="http://www.w3.org/1999/xlink" width="1280" zoomAndPan="magnify" viewBox="0 0 960 599.999999" height="800" preserveAspectRatio="xMidYMid meet" version="1.2"><defs><clipPath id="f8d7a0fdd5"><path d="M 198.726562 82 L 616 82 L 616 587.078125 L 198.726562 587.078125 Z M 198.726562 82 "/></clipPath><clipPath id="9af6c8f7ca"><path d="M 345 12.621094 L 469 12.621094 L 469 90 L 345 90 Z M 345 12.621094 "/></clipPath><clipPath id="416abcaef4"><path d="M 411 160 L 761.054688 160 L 761.054688 509.738281 L 411 509.738281 Z M 411 160 "/></clipPath></defs><g id="ff7fadc78b"><path style=" stroke:none;fill-rule:evenodd;fill:#ffffff;fill-opacity:1;" d="M 559.003906 547.808594 L 254.9375 547.808594 C 245.597656 547.808594 237.996094 540.207031 237.996094 530.863281 L 237.996094 138.390625 C 237.996094 129.046875 245.597656 121.445312 254.9375 121.445312 L 308.265625 121.445312 C 313.226562 121.445312 317.242188 125.464844 317.242188 130.417969 C 317.242188 135.378906 313.226562 139.394531 308.265625 139.394531 L 255.941406 139.394531 L 255.941406 529.859375 L 558 529.859375 L 558 499.050781 C 558 494.089844 562.019531 490.074219 566.976562 490.074219 C 571.933594 490.074219 575.949219 494.089844 575.949219 499.050781 L 575.949219 530.863281 C 575.949219 540.207031 568.347656 547.808594 559.003906 547.808594 "/><path style=" stroke:none;fill-rule:evenodd;fill:#ffffff;fill-opacity:1;" d="M 566.976562 179.1875 C 562.023438 179.1875 558.007812 175.167969 558.007812 170.207031 L 558.007812 139.394531 L 505.683594 139.394531 C 500.726562 139.394531 496.707031 135.378906 496.707031 130.417969 C 496.707031 125.464844 500.726562 121.445312 505.683594 121.445312 L 559.003906 121.445312 C 568.351562 121.445312 575.953125 129.046875 575.953125 138.390625 L 575.953125 170.207031 C 575.953125 175.167969 571.9375 179.1875 566.976562 179.1875 Z M 559.003906 139.394531 L 559.011719 139.394531 L 559.003906 139.394531 "/><path style=" stroke:none;fill-rule:evenodd;fill:#ffffff;fill-opacity:1;" d="M 505.679688 157.09375 L 308.265625 157.09375 C 303.3125 157.09375 299.292969 153.078125 299.292969 148.117188 L 299.292969 76.789062 C 299.292969 62.21875 311.144531 50.367188 325.71875 50.367188 L 354.402344 50.367188 C 359.359375 50.367188 363.375 54.386719 363.375 59.339844 C 363.375 64.300781 359.359375 68.316406 354.402344 68.316406 L 325.71875 68.316406 C 321.046875 68.316406 317.242188 72.113281 317.242188 76.789062 L 317.242188 139.144531 L 496.703125 139.144531 L 496.703125 76.789062 C 496.703125 72.113281 492.898438 68.316406 488.222656 68.316406 L 459.539062 68.316406 C 454.585938 68.316406 450.570312 64.300781 450.570312 59.339844 C 450.570312 54.386719 454.585938 50.367188 459.539062 50.367188 L 488.222656 50.367188 C 502.800781 50.367188 514.648438 62.21875 514.648438 76.789062 L 514.648438 148.117188 C 514.648438 153.078125 510.632812 157.09375 505.679688 157.09375 "/><g clip-rule="nonzero" clip-path="url(#f8d7a0fdd5)"><path style=" stroke:none;fill-rule:evenodd;fill:#ffffff;fill-opacity:1;" d="M 590.300781 587.082031 L 223.644531 587.082031 C 209.902344 587.082031 198.726562 575.898438 198.726562 562.164062 L 198.726562 107.097656 C 198.726562 93.355469 209.902344 82.179688 223.644531 82.179688 L 308.265625 82.179688 C 313.21875 82.179688 317.234375 86.195312 317.234375 91.15625 C 317.234375 96.109375 313.21875 100.128906 308.265625 100.128906 L 223.644531 100.128906 C 219.804688 100.128906 216.675781 103.25 216.675781 107.097656 L 216.675781 562.164062 C 216.675781 566.003906 219.804688 569.132812 223.644531 569.132812 L 590.300781 569.132812 C 594.140625 569.132812 597.269531 566.003906 597.269531 562.164062 L 597.269531 499.03125 C 597.269531 494.074219 601.285156 490.054688 606.246094 490.054688 C 611.199219 490.054688 615.214844 494.074219 615.214844 499.03125 L 615.214844 562.164062 C 615.214844 575.898438 604.042969 587.082031 590.300781 587.082031 "/></g><path style=" stroke:none;fill-rule:evenodd;fill:#ffffff;fill-opacity:1;" d="M 606.238281 179.203125 C 601.285156 179.203125 597.269531 175.1875 597.269531 170.226562 L 597.269531 107.097656 C 597.269531 103.257812 594.140625 100.128906 590.300781 100.128906 L 505.679688 100.128906 C 500.726562 100.128906 496.707031 96.109375 496.707031 91.15625 C 496.707031 86.195312 500.726562 82.179688 505.679688 82.179688 L 590.300781 82.179688 C 604.042969 82.179688 615.214844 93.355469 615.214844 107.097656 L 615.214844 170.226562 C 615.214844 175.1875 611.199219 179.203125 606.238281 179.203125 "/><g clip-rule="nonzero" clip-path="url(#9af6c8f7ca)"><path style=" stroke:none;fill-rule:evenodd;fill:#ffffff;fill-opacity:1;" d="M 459.539062 89.136719 L 354.402344 89.136719 C 349.445312 89.136719 345.425781 85.121094 345.425781 80.160156 L 345.425781 29.175781 C 345.425781 20.109375 352.808594 12.726562 361.882812 12.726562 L 452.066406 12.726562 C 461.136719 12.726562 468.515625 20.109375 468.515625 29.175781 L 468.515625 80.160156 C 468.515625 85.121094 464.5 89.136719 459.539062 89.136719 Z M 363.375 71.1875 L 450.570312 71.1875 L 450.570312 30.671875 L 363.375 30.671875 L 363.375 71.1875 "/></g><path style=" stroke:none;fill-rule:evenodd;fill:#ffffff;fill-opacity:1;" d="M 457.902344 239.335938 L 375.320312 239.335938 C 370.359375 239.335938 366.34375 235.316406 366.34375 230.355469 C 366.34375 225.402344 370.359375 221.386719 375.320312 221.386719 L 457.902344 221.386719 C 462.855469 221.386719 466.875 225.402344 466.875 230.355469 C 466.875 235.316406 462.855469 239.335938 457.902344 239.335938 "/><path style=" stroke:none;fill-rule:evenodd;fill:#ffffff;fill-opacity:1;" d="M 310.535156 246.535156 C 308.242188 246.535156 305.945312 245.65625 304.195312 243.90625 L 291.753906 231.472656 C 288.246094 227.964844 288.246094 222.289062 291.753906 218.78125 C 295.257812 215.277344 300.9375 215.277344 304.441406 218.777344 L 310.535156 224.867188 L 332.980469 202.421875 C 336.484375 198.917969 342.171875 198.917969 345.675781 202.421875 C 349.183594 205.921875 349.183594 211.605469 345.675781 215.113281 L 316.882812 243.90625 C 315.128906 245.65625 312.828125 246.535156 310.535156 246.535156 "/><path style=" stroke:none;fill-rule:evenodd;fill:#ffffff;fill-opacity:1;" d="M 423.144531 316.554688 L 375.320312 316.554688 C 370.359375 316.554688 366.34375 312.539062 366.34375 307.578125 C 366.34375 302.625 370.359375 298.605469 375.320312 298.605469 L 423.144531 298.605469 C 428.105469 298.605469 432.121094 302.625 432.121094 307.578125 C 432.121094 312.539062 428.105469 316.554688 423.144531 316.554688 "/><path style=" stroke:none;fill-rule:evenodd;fill:#ffffff;fill-opacity:1;" d="M 310.535156 323.753906 C 308.242188 323.753906 305.945312 322.878906 304.195312 321.125 L 291.753906 308.691406 C 288.246094 305.1875 288.246094 299.5 291.753906 296 C 295.257812 292.496094 300.9375 292.496094 304.441406 295.996094 L 310.535156 302.085938 L 332.980469 279.636719 C 336.484375 276.136719 342.171875 276.136719 345.675781 279.636719 C 349.183594 283.140625 349.183594 288.828125 345.675781 292.332031 L 316.882812 321.125 C 315.128906 322.878906 312.828125 323.753906 310.535156 323.753906 "/><path style=" stroke:none;fill-rule:evenodd;fill:#ffffff;fill-opacity:1;" d="M 428.695312 393.773438 L 375.320312 393.773438 C 370.359375 393.773438 366.34375 389.757812 366.34375 384.796875 C 366.34375 379.84375 370.359375 375.828125 375.320312 375.828125 L 428.695312 375.828125 C 433.65625 375.828125 437.671875 379.84375 437.671875 384.796875 C 437.671875 389.757812 433.65625 393.773438 428.695312 393.773438 "/><path style=" stroke:none;fill-rule:evenodd;fill:#ffffff;fill-opacity:1;" d="M 310.535156 400.972656 C 308.15625 400.972656 305.875 400.03125 304.1875 398.34375 L 291.753906 385.910156 C 288.246094 382.40625 288.246094 376.722656 291.753906 373.222656 C 295.257812 369.714844 300.9375 369.714844 304.441406 373.222656 L 310.535156 379.308594 L 332.980469 356.863281 C 336.484375 353.355469 342.171875 353.355469 345.675781 356.855469 C 349.183594 360.363281 349.183594 366.046875 345.675781 369.550781 L 316.882812 398.34375 C 315.195312 400.03125 312.914062 400.972656 310.535156 400.972656 "/><path style=" stroke:none;fill-rule:evenodd;fill:#ffffff;fill-opacity:1;" d="M 480.757812 470.996094 L 375.320312 470.996094 C 370.359375 470.996094 366.34375 466.976562 366.34375 462.015625 C 366.34375 457.0625 370.359375 453.046875 375.320312 453.046875 L 480.757812 453.046875 C 485.710938 453.046875 489.726562 457.0625 489.726562 462.015625 C 489.726562 466.976562 485.710938 470.996094 480.757812 470.996094 "/><path style=" stroke:none;fill-rule:evenodd;fill:#ffffff;fill-opacity:1;" d="M 310.535156 478.195312 C 308.242188 478.195312 305.945312 477.316406 304.195312 475.566406 L 291.753906 463.136719 C 288.246094 459.632812 288.246094 453.949219 291.753906 450.441406 C 295.257812 446.9375 300.9375 446.9375 304.441406 450.441406 L 310.535156 456.527344 L 332.980469 434.078125 C 336.484375 430.578125 342.171875 430.570312 345.675781 434.078125 C 349.183594 437.582031 349.183594 443.265625 345.675781 446.773438 L 316.882812 475.566406 C 315.128906 477.316406 312.828125 478.195312 310.535156 478.195312 "/><g clip-rule="nonzero" clip-path="url(#416abcaef4)"><path style=" stroke:none;fill-rule:evenodd;fill:#ffffff;fill-opacity:1;" d="M 586.515625 509.167969 C 562.972656 509.167969 540.113281 504.546875 518.570312 495.4375 C 497.773438 486.640625 479.113281 474.0625 463.101562 458.050781 C 447.089844 442.035156 434.507812 423.378906 425.714844 402.582031 C 416.601562 381.035156 411.984375 358.171875 411.984375 334.628906 C 411.984375 311.09375 416.601562 288.230469 425.714844 266.683594 C 434.507812 245.890625 447.089844 227.230469 463.101562 211.214844 C 479.113281 195.203125 497.773438 182.625 518.570312 173.828125 C 540.113281 164.71875 562.980469 160.101562 586.515625 160.101562 C 610.054688 160.101562 632.921875 164.71875 654.464844 173.828125 C 675.261719 182.625 693.921875 195.203125 709.933594 211.214844 C 725.945312 227.230469 738.527344 245.890625 747.320312 266.679688 C 756.429688 288.230469 761.050781 311.09375 761.050781 334.628906 C 761.050781 358.175781 756.429688 381.035156 747.320312 402.582031 C 738.527344 423.371094 725.945312 442.035156 709.933594 458.050781 C 693.921875 474.0625 675.261719 486.640625 654.464844 495.4375 C 632.921875 504.546875 610.0625 509.167969 586.515625 509.167969 Z M 586.515625 178.046875 C 565.394531 178.046875 544.886719 182.191406 525.554688 190.359375 C 506.910156 198.253906 490.164062 209.535156 475.789062 223.914062 C 461.421875 238.28125 450.136719 255.023438 442.25 273.671875 C 434.078125 292.996094 429.933594 313.503906 429.933594 334.628906 C 429.933594 355.761719 434.078125 376.265625 442.25 395.589844 C 450.136719 414.242188 461.421875 430.984375 475.789062 445.355469 C 490.164062 459.730469 506.910156 471.011719 525.5625 478.90625 C 544.878906 487.074219 565.390625 491.21875 586.519531 491.21875 C 607.644531 491.21875 628.15625 487.074219 647.476562 478.898438 C 666.125 471.011719 682.867188 459.730469 697.242188 445.355469 C 711.613281 430.984375 722.898438 414.242188 730.789062 395.589844 C 738.957031 376.269531 743.101562 355.761719 743.101562 334.628906 C 743.101562 313.503906 738.957031 292.996094 730.789062 273.671875 C 722.898438 255.023438 711.613281 238.28125 697.242188 223.914062 C 682.867188 209.535156 666.125 198.253906 647.472656 190.359375 C 628.148438 182.191406 607.640625 178.046875 586.515625 178.046875 "/></g><path style=" stroke:none;fill-rule:evenodd;fill:#ffffff;fill-opacity:1;" d="M 586.515625 472.855469 C 567.859375 472.855469 549.761719 469.199219 532.714844 461.988281 C 516.25 455.023438 501.46875 445.0625 488.777344 432.371094 C 476.089844 419.675781 466.121094 404.898438 459.15625 388.4375 C 451.945312 371.390625 448.292969 353.285156 448.292969 334.628906 C 448.292969 315.96875 451.945312 297.871094 459.15625 280.824219 C 466.121094 264.359375 476.089844 249.578125 488.777344 236.886719 C 501.46875 224.199219 516.25 214.230469 532.714844 207.265625 C 549.761719 200.054688 567.859375 196.402344 586.515625 196.402344 C 605.175781 196.402344 623.273438 200.054688 640.328125 207.265625 C 656.785156 214.230469 671.566406 224.199219 684.257812 236.886719 C 696.953125 249.578125 706.914062 264.359375 713.878906 280.824219 C 721.089844 297.871094 724.742188 315.96875 724.742188 334.628906 C 724.742188 353.285156 721.089844 371.390625 713.878906 388.4375 C 706.914062 404.894531 696.953125 419.675781 684.257812 432.367188 C 671.566406 445.0625 656.785156 455.023438 640.328125 461.988281 C 623.273438 469.199219 605.175781 472.855469 586.515625 472.855469 Z M 586.515625 214.351562 C 520.195312 214.351562 466.242188 268.308594 466.242188 334.628906 C 466.242188 400.949219 520.195312 454.910156 586.515625 454.910156 C 652.839844 454.910156 706.792969 400.949219 706.792969 334.628906 C 706.792969 268.308594 652.839844 214.351562 586.515625 214.351562 "/><path style=" stroke:none;fill-rule:evenodd;fill:#ffffff;fill-opacity:1;" d="M 586.515625 232.503906 C 581.558594 232.503906 577.542969 228.488281 577.542969 223.527344 L 577.542969 205.378906 C 577.542969 200.421875 581.558594 196.402344 586.515625 196.402344 C 591.472656 196.402344 595.492188 200.421875 595.492188 205.378906 L 595.492188 223.527344 C 595.492188 228.488281 591.472656 232.503906 586.515625 232.503906 "/><path style=" stroke:none;fill-rule:evenodd;fill:#ffffff;fill-opacity:1;" d="M 530.972656 247.378906 C 527.875 247.378906 524.855469 245.765625 523.195312 242.886719 L 514.113281 227.167969 C 511.636719 222.878906 513.109375 217.386719 517.402344 214.910156 C 521.691406 212.433594 527.179688 213.902344 529.65625 218.199219 L 538.738281 233.910156 C 541.214844 238.207031 539.75 243.691406 535.453125 246.175781 C 534.039062 246.992188 532.5 247.378906 530.972656 247.378906 "/><path style=" stroke:none;fill-rule:evenodd;fill:#ffffff;fill-opacity:1;" d="M 490.289062 288.035156 C 488.765625 288.035156 487.21875 287.644531 485.808594 286.828125 L 470.082031 277.75 C 465.789062 275.273438 464.324219 269.78125 466.800781 265.492188 C 469.277344 261.203125 474.769531 259.730469 479.058594 262.210938 L 494.785156 271.285156 C 499.074219 273.769531 500.546875 279.253906 498.066406 283.542969 C 496.402344 286.429688 493.386719 288.035156 490.289062 288.035156 "/><path style=" stroke:none;fill-rule:evenodd;fill:#ffffff;fill-opacity:1;" d="M 475.394531 343.582031 L 457.246094 343.582031 C 452.285156 343.582031 448.269531 339.566406 448.269531 334.605469 C 448.269531 329.652344 452.285156 325.636719 457.246094 325.636719 L 475.394531 325.636719 C 480.355469 325.636719 484.371094 329.652344 484.371094 334.605469 C 484.371094 339.566406 480.355469 343.582031 475.394531 343.582031 "/><path style=" stroke:none;fill-rule:evenodd;fill:#ffffff;fill-opacity:1;" d="M 474.554688 408.210938 C 471.457031 408.210938 468.4375 406.597656 466.777344 403.71875 C 464.300781 399.429688 465.765625 393.9375 470.0625 391.460938 L 485.785156 382.386719 C 490.074219 379.910156 495.5625 381.378906 498.039062 385.667969 C 500.519531 389.964844 499.046875 395.453125 494.753906 397.929688 L 479.035156 407.003906 C 477.621094 407.820312 476.082031 408.210938 474.554688 408.210938 "/><path style=" stroke:none;fill-rule:evenodd;fill:#ffffff;fill-opacity:1;" d="M 521.835938 455.53125 C 520.316406 455.53125 518.769531 455.140625 517.359375 454.324219 C 513.066406 451.847656 511.59375 446.359375 514.070312 442.066406 L 523.152344 426.339844 C 525.628906 422.050781 531.125 420.578125 535.414062 423.054688 C 539.707031 425.539062 541.179688 431.027344 538.695312 435.316406 L 529.621094 451.039062 C 527.953125 453.917969 524.941406 455.53125 521.835938 455.53125 "/><path style=" stroke:none;fill-rule:evenodd;fill:#ffffff;fill-opacity:1;" d="M 586.472656 472.855469 C 581.515625 472.855469 577.5 468.839844 577.5 463.878906 L 577.5 445.726562 C 577.5 440.769531 581.515625 436.753906 586.472656 436.753906 C 591.429688 436.753906 595.449219 440.769531 595.449219 445.726562 L 595.449219 463.878906 C 595.449219 468.839844 591.429688 472.855469 586.472656 472.855469 "/><path style=" stroke:none;fill-rule:evenodd;fill:#ffffff;fill-opacity:1;" d="M 651.105469 455.554688 C 648 455.554688 644.988281 453.941406 643.328125 451.0625 L 634.253906 435.335938 C 631.769531 431.046875 633.242188 425.554688 637.539062 423.078125 C 641.832031 420.601562 647.320312 422.074219 649.796875 426.367188 L 658.871094 442.089844 C 661.347656 446.382812 659.875 451.871094 655.585938 454.347656 C 654.171875 455.164062 652.628906 455.554688 651.105469 455.554688 "/><path style=" stroke:none;fill-rule:evenodd;fill:#ffffff;fill-opacity:1;" d="M 698.414062 408.246094 C 696.886719 408.246094 695.34375 407.863281 693.933594 407.046875 L 678.207031 397.96875 C 673.917969 395.496094 672.441406 390.007812 674.921875 385.710938 C 677.402344 381.417969 682.894531 379.945312 687.183594 382.425781 L 702.902344 391.5 C 707.195312 393.980469 708.667969 399.464844 706.191406 403.761719 C 704.527344 406.640625 701.511719 408.246094 698.414062 408.246094 "/><path style=" stroke:none;fill-rule:evenodd;fill:#ffffff;fill-opacity:1;" d="M 715.746094 343.625 L 697.589844 343.625 C 692.636719 343.625 688.621094 339.609375 688.621094 334.648438 C 688.621094 329.695312 692.636719 325.675781 697.589844 325.675781 L 715.746094 325.675781 C 720.707031 325.675781 724.722656 329.695312 724.722656 334.648438 C 724.722656 339.609375 720.707031 343.625 715.746094 343.625 "/><path style=" stroke:none;fill-rule:evenodd;fill:#ffffff;fill-opacity:1;" d="M 682.722656 288.078125 C 679.625 288.078125 676.605469 286.464844 674.945312 283.585938 C 672.46875 279.296875 673.941406 273.804688 678.230469 271.328125 L 693.953125 262.25 C 698.242188 259.769531 703.730469 261.246094 706.214844 265.535156 C 708.691406 269.824219 707.21875 275.316406 702.929688 277.792969 L 687.203125 286.871094 C 685.789062 287.6875 684.25 288.078125 682.722656 288.078125 "/><path style=" stroke:none;fill-rule:evenodd;fill:#ffffff;fill-opacity:1;" d="M 642.054688 247.40625 C 640.535156 247.40625 638.996094 247.015625 637.574219 246.199219 C 633.285156 243.722656 631.8125 238.234375 634.289062 233.941406 L 643.371094 218.222656 C 645.847656 213.925781 651.332031 212.453125 655.628906 214.929688 C 659.917969 217.40625 661.390625 222.894531 658.914062 227.191406 L 649.832031 242.914062 C 648.179688 245.792969 645.160156 247.40625 642.054688 247.40625 "/><path style=" stroke:none;fill-rule:evenodd;fill:#ffffff;fill-opacity:1;" d="M 586.515625 359.46875 C 572.898438 359.46875 561.824219 348.390625 561.824219 334.777344 C 561.824219 321.160156 572.898438 310.078125 586.515625 310.078125 C 600.132812 310.078125 611.210938 321.160156 611.210938 334.777344 C 611.210938 348.390625 600.132812 359.46875 586.515625 359.46875 Z M 586.515625 328.027344 C 582.796875 328.027344 579.769531 331.058594 579.769531 334.777344 C 579.769531 338.496094 582.796875 341.519531 586.515625 341.519531 C 590.238281 341.519531 593.261719 338.496094 593.261719 334.777344 C 593.261719 331.058594 590.238281 328.027344 586.515625 328.027344 "/><path style=" stroke:none;fill-rule:evenodd;fill:#ffffff;fill-opacity:1;" d="M 597.621094 332.644531 C 595.320312 332.644531 593.027344 331.769531 591.273438 330.015625 C 587.769531 326.515625 587.769531 320.832031 591.265625 317.328125 L 624.808594 283.761719 C 628.3125 280.25 633.992188 280.25 637.496094 283.75 C 641.003906 287.257812 641.007812 292.941406 637.503906 296.445312 L 603.96875 330.011719 C 602.214844 331.761719 599.914062 332.644531 597.621094 332.644531 "/><path style=" stroke:none;fill-rule:evenodd;fill:#ffffff;fill-opacity:1;" d="M 631.167969 388.40625 C 628.867188 388.40625 626.574219 387.53125 624.820312 385.785156 L 591.253906 352.25 C 587.75 348.742188 587.742188 343.066406 591.25 339.554688 C 594.75 336.046875 600.433594 336.046875 603.9375 339.546875 L 637.503906 373.082031 C 641.015625 376.585938 641.015625 382.273438 637.515625 385.777344 C 635.761719 387.53125 633.460938 388.40625 631.167969 388.40625 "/></g></svg>