<svg xmlns="http://www.w3.org/2000/svg" xmlns:xlink="http://www.w3.org/1999/xlink" width="1280" zoomAndPan="magnify" viewBox="0 0 960 599.999999" height="800" preserveAspectRatio="xMidYMid meet" version="1.2"><defs><clipPath id="c079c2aedd"><path d="M 289 9 L 761.320312 9 L 761.320312 591 L 289 591 Z M 289 9 "/></clipPath><clipPath id="c12da02c6d"><path d="M 198.820312 105 L 291 105 L 291 167 L 198.820312 167 Z M 198.820312 105 "/></clipPath><clipPath id="7bea1f4805"><path d="M 198.820312 215 L 321 215 L 321 277 L 198.820312 277 Z M 198.820312 215 "/></clipPath><clipPath id="3feb4c07b4"><path d="M 198.820312 325 L 321 325 L 321 387 L 198.820312 387 Z M 198.820312 325 "/></clipPath></defs><g id="d1827aae37"><path style=" stroke:none;fill-rule:nonzero;fill:#ffffff;fill-opacity:1;" d="M 615.265625 159.339844 C 615.265625 159.945312 615.234375 160.550781 615.175781 161.152344 C 615.117188 161.753906 615.027344 162.351562 614.910156 162.945312 C 614.792969 163.539062 614.644531 164.125 614.46875 164.703125 C 614.292969 165.28125 614.089844 165.851562 613.859375 166.410156 C 613.628906 166.96875 613.367188 167.515625 613.082031 168.050781 C 612.796875 168.582031 612.488281 169.101562 612.152344 169.605469 C 611.816406 170.109375 611.457031 170.59375 611.070312 171.0625 C 610.6875 171.53125 610.28125 171.976562 609.855469 172.40625 C 609.425781 172.832031 608.976562 173.238281 608.511719 173.621094 C 608.042969 174.007812 607.558594 174.367188 607.054688 174.703125 C 606.550781 175.039062 606.03125 175.347656 605.5 175.636719 C 604.964844 175.921875 604.417969 176.179688 603.859375 176.410156 C 603.300781 176.640625 602.730469 176.84375 602.152344 177.019531 C 601.574219 177.195312 600.988281 177.34375 600.394531 177.460938 C 599.800781 177.578125 599.203125 177.667969 598.601562 177.726562 C 598 177.785156 597.394531 177.816406 596.789062 177.816406 C 596.183594 177.816406 595.582031 177.785156 594.980469 177.726562 C 594.375 177.667969 593.777344 177.578125 593.183594 177.460938 C 592.589844 177.34375 592.003906 177.195312 591.425781 177.019531 C 590.847656 176.84375 590.277344 176.640625 589.71875 176.410156 C 589.160156 176.179688 588.613281 175.921875 588.082031 175.636719 C 587.546875 175.351562 587.027344 175.039062 586.523438 174.703125 C 586.023438 174.367188 585.535156 174.007812 585.070312 173.621094 C 584.601562 173.238281 584.152344 172.832031 583.726562 172.40625 C 583.296875 171.976562 582.890625 171.53125 582.507812 171.0625 C 582.125 170.59375 581.765625 170.109375 581.425781 169.605469 C 581.089844 169.101562 580.78125 168.582031 580.496094 168.050781 C 580.210938 167.515625 579.953125 166.96875 579.71875 166.410156 C 579.488281 165.851562 579.285156 165.28125 579.109375 164.703125 C 578.933594 164.125 578.785156 163.539062 578.667969 162.945312 C 578.550781 162.351562 578.460938 161.753906 578.402344 161.152344 C 578.34375 160.550781 578.3125 159.945312 578.3125 159.339844 C 578.3125 158.734375 578.34375 158.132812 578.402344 157.53125 C 578.460938 156.925781 578.550781 156.328125 578.667969 155.738281 C 578.785156 155.144531 578.933594 154.554688 579.109375 153.976562 C 579.285156 153.398438 579.488281 152.828125 579.71875 152.269531 C 579.953125 151.710938 580.210938 151.164062 580.496094 150.632812 C 580.78125 150.097656 581.089844 149.578125 581.425781 149.078125 C 581.765625 148.574219 582.125 148.085938 582.507812 147.621094 C 582.890625 147.152344 583.296875 146.703125 583.726562 146.277344 C 584.152344 145.847656 584.601562 145.441406 585.070312 145.058594 C 585.535156 144.675781 586.023438 144.316406 586.523438 143.980469 C 587.027344 143.644531 587.546875 143.332031 588.082031 143.046875 C 588.613281 142.761719 589.160156 142.503906 589.71875 142.269531 C 590.277344 142.039062 590.847656 141.835938 591.425781 141.660156 C 592.003906 141.484375 592.589844 141.339844 593.183594 141.21875 C 593.777344 141.101562 594.375 141.011719 594.980469 140.953125 C 595.582031 140.894531 596.183594 140.863281 596.789062 140.863281 C 597.394531 140.863281 598 140.894531 598.601562 140.953125 C 599.203125 141.011719 599.800781 141.101562 600.394531 141.21875 C 600.988281 141.339844 601.574219 141.484375 602.152344 141.660156 C 602.730469 141.835938 603.300781 142.039062 603.859375 142.269531 C 604.417969 142.503906 604.964844 142.761719 605.5 143.046875 C 606.03125 143.332031 606.550781 143.644531 607.054688 143.980469 C 607.558594 144.316406 608.042969 144.675781 608.511719 145.058594 C 608.976562 145.441406 609.425781 145.847656 609.855469 146.277344 C 610.28125 146.703125 610.6875 147.152344 611.070312 147.621094 C 611.457031 148.085938 611.816406 148.574219 612.152344 149.078125 C 612.488281 149.578125 612.796875 150.097656 613.082031 150.632812 C 613.367188 151.164062 613.628906 151.710938 613.859375 152.269531 C 614.089844 152.828125 614.292969 153.398438 614.46875 153.976562 C 614.644531 154.554688 614.792969 155.144531 614.910156 155.738281 C 615.027344 156.328125 615.117188 156.925781 615.175781 157.53125 C 615.234375 158.132812 615.265625 158.734375 615.265625 159.339844 Z M 615.265625 159.339844 "/><path style=" stroke:none;fill-rule:nonzero;fill:#ffffff;fill-opacity:1;" d="M 596.824219 235.574219 C 599.414062 235.574219 601.519531 233.472656 601.519531 230.878906 C 601.519531 230.804688 601.5 230.738281 601.496094 230.667969 C 605.835938 230.3125 610.039062 229.484375 614.054688 228.222656 C 614.085938 228.308594 614.097656 228.398438 614.132812 228.484375 C 614.863281 230.324219 616.628906 231.445312 618.496094 231.445312 C 619.074219 231.445312 619.660156 231.335938 620.230469 231.113281 C 628.160156 227.957031 635.257812 223.304688 641.316406 217.285156 C 643.160156 215.457031 643.167969 212.484375 641.339844 210.644531 C 640.507812 209.804688 639.4375 209.363281 638.34375 209.289062 C 630.53125 194.296875 614.859375 184.058594 596.789062 184.058594 C 579.40625 184.058594 564.238281 193.53125 556.167969 207.589844 C 548.203125 198.363281 543.378906 186.40625 543.378906 173.351562 C 543.378906 144.21875 567.351562 120.519531 596.820312 120.519531 C 626.289062 120.519531 650.261719 144.21875 650.261719 173.351562 C 650.261719 180.597656 648.808594 187.613281 645.9375 194.214844 C 644.902344 196.589844 645.988281 199.359375 648.367188 200.394531 C 650.742188 201.425781 653.511719 200.339844 654.546875 197.960938 C 657.933594 190.175781 659.65625 181.894531 659.65625 173.351562 C 659.65625 139.042969 631.46875 111.128906 596.820312 111.128906 C 562.171875 111.128906 533.984375 139.042969 533.984375 173.351562 C 533.984375 207.664062 562.175781 235.574219 596.824219 235.574219 Z M 596.824219 235.574219 "/><g clip-rule="nonzero" clip-path="url(#c079c2aedd)"><path style=" stroke:none;fill-rule:nonzero;fill:#ffffff;fill-opacity:1;" d="M 739.121094 9.082031 L 454.566406 9.082031 C 449.207031 9.082031 444.273438 10.992188 440.453125 14.1875 C 437.558594 16.597656 435.292969 19.75 433.9375 23.34375 C 433.007812 25.765625 432.511719 28.390625 432.511719 31.140625 L 432.511719 223.085938 C 431.589844 223.058594 430.671875 223.015625 429.746094 223.015625 C 382.367188 223.015625 343.960938 261.425781 343.960938 308.800781 C 343.960938 329.941406 351.621094 349.28125 364.296875 364.230469 L 357.652344 370.875 L 292.777344 435.742188 C 288.199219 440.332031 288.199219 447.761719 292.777344 452.351562 C 295.078125 454.644531 298.074219 455.78125 301.078125 455.78125 C 304.082031 455.78125 307.089844 454.644531 309.390625 452.351562 L 375.078125 386.65625 L 381.792969 379.9375 C 395.480469 389.183594 411.980469 394.585938 429.746094 394.585938 C 430.675781 394.585938 431.59375 394.542969 432.515625 394.515625 C 432.515625 394.515625 432.511719 394.515625 432.511719 394.515625 L 432.511719 568.738281 C 432.511719 580.914062 442.390625 590.792969 454.566406 590.792969 L 739.121094 590.792969 C 751.296875 590.792969 761.179688 580.914062 761.179688 568.738281 L 761.179688 31.140625 C 761.179688 18.964844 751.296875 9.082031 739.121094 9.082031 Z M 624.996094 27.855469 L 643.78125 27.855469 C 646.375 27.855469 648.476562 29.960938 648.476562 32.554688 C 648.476562 35.144531 646.375 37.25 643.78125 37.25 L 624.996094 37.25 C 622.402344 37.25 620.300781 35.144531 620.300781 32.554688 C 620.300781 29.960938 622.402344 27.855469 624.996094 27.855469 Z M 549.859375 27.855469 L 596.820312 27.855469 C 599.414062 27.855469 601.515625 29.960938 601.515625 32.554688 C 601.515625 35.144531 599.414062 37.25 596.820312 37.25 L 549.859375 37.25 C 547.265625 37.25 545.164062 35.144531 545.164062 32.554688 C 545.164062 29.960938 547.265625 27.855469 549.859375 27.855469 Z M 451.246094 73.019531 C 451.246094 68.828125 454.652344 65.421875 458.84375 65.421875 L 734.808594 65.421875 C 739 65.421875 742.40625 68.828125 742.40625 73.019531 L 742.40625 478.707031 L 708.789062 478.707031 L 708.789062 275.691406 C 708.789062 273.746094 707.210938 272.167969 705.269531 272.167969 L 655.84375 272.167969 C 653.894531 272.167969 652.320312 273.746094 652.320312 275.691406 L 652.320312 478.707031 L 624.488281 478.707031 L 624.488281 379.007812 C 624.488281 377.0625 622.910156 375.484375 620.96875 375.484375 L 571.550781 375.484375 C 569.605469 375.484375 568.03125 377.0625 568.03125 379.007812 L 568.03125 478.707031 L 540.203125 478.707031 L 540.203125 322.292969 C 540.203125 320.347656 538.617188 318.773438 536.679688 318.773438 L 525.578125 318.773438 C 522.582031 347.761719 506.679688 372.980469 483.730469 388.5625 L 483.730469 478.703125 L 451.246094 478.703125 L 451.246094 391.863281 C 475.550781 385.589844 495.667969 368.921875 506.609375 346.890625 C 506.613281 346.878906 506.621094 346.867188 506.628906 346.851562 C 507.230469 345.632812 507.808594 344.394531 508.355469 343.144531 C 508.363281 343.128906 508.371094 343.113281 508.378906 343.097656 C 508.925781 341.84375 509.441406 340.574219 509.929688 339.289062 C 509.9375 339.277344 509.941406 339.265625 509.945312 339.253906 C 510.4375 337.960938 510.898438 336.652344 511.328125 335.328125 C 511.328125 335.328125 511.328125 335.324219 511.332031 335.324219 C 514.046875 326.96875 515.527344 318.058594 515.527344 308.800781 C 515.527344 268.847656 488.21875 235.277344 451.25 225.734375 L 451.25 73.019531 Z M 429.746094 371.105469 C 395.390625 371.105469 367.441406 343.152344 367.441406 308.800781 C 367.441406 274.445312 395.390625 246.496094 429.746094 246.496094 C 464.097656 246.496094 492.046875 274.445312 492.046875 308.800781 C 492.046875 343.152344 464.097656 371.105469 429.746094 371.105469 Z M 596.84375 567.984375 C 590.546875 567.984375 585.4375 562.875 585.4375 556.578125 C 585.4375 550.277344 590.546875 545.171875 596.84375 545.171875 C 603.144531 545.171875 608.25 550.277344 608.25 556.578125 C 608.25 562.875 603.144531 567.984375 596.84375 567.984375 Z M 734.808594 525.640625 L 458.84375 525.640625 C 454.652344 525.640625 451.246094 522.25 451.246094 518.046875 L 451.246094 492.019531 L 742.40625 492.019531 L 742.40625 518.046875 C 742.40625 522.25 739 525.640625 734.808594 525.640625 Z M 734.808594 525.640625 "/></g><path style=" stroke:none;fill-rule:nonzero;fill:#ffffff;fill-opacity:1;" d="M 315.640625 140.515625 L 390.863281 140.515625 C 393.453125 140.515625 395.558594 142.621094 395.558594 145.210938 L 395.558594 201.585938 C 395.558594 204.179688 397.664062 206.28125 400.257812 206.28125 C 402.847656 206.28125 404.953125 204.179688 404.953125 201.585938 L 404.953125 145.210938 C 404.953125 137.441406 398.632812 131.121094 390.863281 131.121094 L 315.640625 131.121094 C 313.046875 131.121094 310.945312 133.226562 310.945312 135.820312 C 310.945312 138.414062 313.046875 140.515625 315.640625 140.515625 Z M 315.640625 140.515625 "/><g clip-rule="nonzero" clip-path="url(#c12da02c6d)"><path style=" stroke:none;fill-rule:nonzero;fill:#ffffff;fill-opacity:1;" d="M 229.226562 166.226562 C 244.398438 166.226562 257.007812 155.058594 259.273438 140.515625 L 285.644531 140.515625 C 288.238281 140.515625 290.339844 138.414062 290.339844 135.820312 C 290.339844 133.226562 288.238281 131.121094 285.644531 131.121094 L 259.273438 131.121094 C 257.007812 116.578125 244.402344 105.410156 229.230469 105.410156 C 212.460938 105.410156 198.820312 119.050781 198.820312 135.820312 C 198.820312 152.585938 212.460938 166.226562 229.226562 166.226562 Z M 229.226562 114.800781 C 240.816406 114.800781 250.246094 124.230469 250.246094 135.820312 C 250.246094 147.40625 240.816406 156.835938 229.226562 156.835938 C 217.640625 156.835938 208.210938 147.40625 208.210938 135.820312 C 208.210938 124.230469 217.640625 114.800781 229.226562 114.800781 Z M 229.226562 114.800781 "/></g><g clip-rule="nonzero" clip-path="url(#7bea1f4805)"><path style=" stroke:none;fill-rule:nonzero;fill:#ffffff;fill-opacity:1;" d="M 229.226562 276.257812 C 244.398438 276.257812 257.007812 265.089844 259.273438 250.542969 L 315.640625 250.542969 C 318.234375 250.542969 320.335938 248.441406 320.335938 245.847656 C 320.335938 243.253906 318.234375 241.152344 315.640625 241.152344 L 259.273438 241.152344 C 257.007812 226.605469 244.402344 215.4375 229.230469 215.4375 C 212.460938 215.4375 198.820312 229.082031 198.820312 245.847656 C 198.820312 262.617188 212.460938 276.257812 229.226562 276.257812 Z M 229.226562 224.828125 C 240.816406 224.828125 250.246094 234.257812 250.246094 245.847656 C 250.246094 257.433594 240.816406 266.863281 229.226562 266.863281 C 217.640625 266.863281 208.210938 257.433594 208.210938 245.847656 C 208.210938 234.257812 217.640625 224.828125 229.226562 224.828125 Z M 229.226562 224.828125 "/></g><g clip-rule="nonzero" clip-path="url(#3feb4c07b4)"><path style=" stroke:none;fill-rule:nonzero;fill:#ffffff;fill-opacity:1;" d="M 320.335938 355.875 C 320.335938 353.28125 318.234375 351.179688 315.640625 351.179688 L 259.273438 351.179688 C 257.007812 336.632812 244.402344 325.46875 229.230469 325.46875 C 212.460938 325.46875 198.820312 339.109375 198.820312 355.875 C 198.820312 372.644531 212.460938 386.285156 229.230469 386.285156 C 244.402344 386.285156 257.011719 375.117188 259.273438 360.574219 L 315.640625 360.574219 C 318.234375 360.574219 320.335938 358.46875 320.335938 355.875 Z M 229.226562 376.894531 C 217.640625 376.894531 208.210938 367.464844 208.210938 355.875 C 208.210938 344.289062 217.640625 334.859375 229.226562 334.859375 C 240.816406 334.859375 250.246094 344.289062 250.246094 355.875 C 250.246094 367.464844 240.816406 376.894531 229.226562 376.894531 Z M 229.226562 376.894531 "/></g><path style=" stroke:none;fill-rule:nonzero;fill:#ffffff;fill-opacity:1;" d="M 405.933594 311.148438 C 405.933594 311.71875 405.878906 312.28125 405.769531 312.835938 C 405.65625 313.394531 405.492188 313.9375 405.277344 314.460938 C 405.058594 314.988281 404.792969 315.484375 404.476562 315.957031 C 404.160156 316.429688 403.800781 316.867188 403.398438 317.269531 C 402.996094 317.671875 402.558594 318.03125 402.085938 318.347656 C 401.613281 318.664062 401.113281 318.929688 400.589844 319.148438 C 400.066406 319.367188 399.523438 319.53125 398.964844 319.640625 C 398.40625 319.75 397.84375 319.808594 397.277344 319.808594 C 396.707031 319.808594 396.144531 319.75 395.585938 319.640625 C 395.03125 319.53125 394.488281 319.367188 393.964844 319.148438 C 393.4375 318.929688 392.9375 318.664062 392.464844 318.347656 C 391.992188 318.03125 391.554688 317.671875 391.152344 317.269531 C 390.753906 316.867188 390.394531 316.429688 390.078125 315.957031 C 389.761719 315.484375 389.496094 314.988281 389.277344 314.460938 C 389.058594 313.9375 388.894531 313.394531 388.785156 312.835938 C 388.671875 312.28125 388.617188 311.71875 388.617188 311.148438 C 388.617188 310.578125 388.671875 310.015625 388.785156 309.460938 C 388.894531 308.902344 389.058594 308.359375 389.277344 307.835938 C 389.496094 307.308594 389.761719 306.8125 390.078125 306.339844 C 390.394531 305.867188 390.753906 305.429688 391.152344 305.027344 C 391.554688 304.625 391.992188 304.265625 392.464844 303.949219 C 392.9375 303.632812 393.4375 303.367188 393.964844 303.148438 C 394.488281 302.929688 395.03125 302.765625 395.585938 302.65625 C 396.144531 302.546875 396.707031 302.488281 397.277344 302.488281 C 397.84375 302.488281 398.40625 302.546875 398.964844 302.65625 C 399.523438 302.765625 400.066406 302.929688 400.589844 303.148438 C 401.113281 303.367188 401.613281 303.632812 402.085938 303.949219 C 402.558594 304.265625 402.996094 304.625 403.398438 305.027344 C 403.800781 305.429688 404.160156 305.867188 404.476562 306.339844 C 404.792969 306.8125 405.058594 307.308594 405.277344 307.835938 C 405.492188 308.359375 405.65625 308.902344 405.769531 309.460938 C 405.878906 310.015625 405.933594 310.578125 405.933594 311.148438 Z M 405.933594 311.148438 "/><path style=" stroke:none;fill-rule:nonzero;fill:#ffffff;fill-opacity:1;" d="M 437.960938 311.148438 C 437.960938 311.71875 437.90625 312.28125 437.792969 312.835938 C 437.683594 313.394531 437.519531 313.9375 437.300781 314.460938 C 437.085938 314.988281 436.816406 315.484375 436.503906 315.957031 C 436.1875 316.429688 435.828125 316.867188 435.425781 317.269531 C 435.023438 317.671875 434.585938 318.03125 434.113281 318.347656 C 433.640625 318.664062 433.140625 318.929688 432.617188 319.148438 C 432.089844 319.367188 431.550781 319.53125 430.992188 319.640625 C 430.433594 319.75 429.871094 319.808594 429.304688 319.808594 C 428.734375 319.808594 428.171875 319.75 427.613281 319.640625 C 427.054688 319.53125 426.515625 319.367188 425.988281 319.148438 C 425.464844 318.929688 424.964844 318.664062 424.492188 318.347656 C 424.019531 318.03125 423.582031 317.671875 423.179688 317.269531 C 422.777344 316.867188 422.417969 316.429688 422.105469 315.957031 C 421.789062 315.484375 421.519531 314.988281 421.304688 314.460938 C 421.085938 313.9375 420.921875 313.394531 420.8125 312.835938 C 420.699219 312.28125 420.644531 311.71875 420.644531 311.148438 C 420.644531 310.578125 420.699219 310.015625 420.8125 309.460938 C 420.921875 308.902344 421.085938 308.359375 421.304688 307.835938 C 421.519531 307.308594 421.789062 306.8125 422.101562 306.339844 C 422.417969 305.867188 422.777344 305.429688 423.179688 305.027344 C 423.582031 304.625 424.019531 304.265625 424.492188 303.949219 C 424.964844 303.632812 425.464844 303.367188 425.988281 303.148438 C 426.515625 302.929688 427.054688 302.765625 427.613281 302.65625 C 428.171875 302.546875 428.734375 302.488281 429.304688 302.488281 C 429.871094 302.488281 430.433594 302.546875 430.992188 302.65625 C 431.550781 302.765625 432.089844 302.929688 432.617188 303.148438 C 433.140625 303.367188 433.640625 303.632812 434.113281 303.949219 C 434.585938 304.265625 435.023438 304.625 435.425781 305.027344 C 435.828125 305.429688 436.1875 305.867188 436.503906 306.339844 C 436.816406 306.8125 437.085938 307.308594 437.300781 307.835938 C 437.519531 308.359375 437.683594 308.902344 437.792969 309.460938 C 437.90625 310.015625 437.960938 310.578125 437.960938 311.148438 Z M 437.960938 311.148438 "/><path style=" stroke:none;fill-rule:nonzero;fill:#ffffff;fill-opacity:1;" d="M 469.988281 311.148438 C 469.988281 311.71875 469.933594 312.28125 469.820312 312.835938 C 469.710938 313.394531 469.546875 313.9375 469.328125 314.460938 C 469.109375 314.988281 468.84375 315.484375 468.527344 315.957031 C 468.210938 316.429688 467.851562 316.867188 467.453125 317.269531 C 467.050781 317.671875 466.613281 318.03125 466.140625 318.347656 C 465.667969 318.664062 465.167969 318.929688 464.640625 319.148438 C 464.117188 319.367188 463.574219 319.53125 463.019531 319.640625 C 462.460938 319.75 461.898438 319.808594 461.328125 319.808594 C 460.761719 319.808594 460.199219 319.75 459.640625 319.640625 C 459.082031 319.53125 458.539062 319.367188 458.015625 319.148438 C 457.492188 318.929688 456.992188 318.664062 456.519531 318.347656 C 456.046875 318.03125 455.609375 317.671875 455.207031 317.269531 C 454.804688 316.867188 454.445312 316.429688 454.128906 315.957031 C 453.8125 315.484375 453.546875 314.988281 453.328125 314.460938 C 453.113281 313.9375 452.949219 313.394531 452.835938 312.835938 C 452.726562 312.28125 452.671875 311.71875 452.671875 311.148438 C 452.671875 310.578125 452.726562 310.015625 452.835938 309.460938 C 452.949219 308.902344 453.113281 308.359375 453.328125 307.835938 C 453.546875 307.308594 453.8125 306.8125 454.128906 306.339844 C 454.445312 305.867188 454.804688 305.429688 455.207031 305.027344 C 455.609375 304.625 456.046875 304.265625 456.519531 303.949219 C 456.992188 303.632812 457.492188 303.367188 458.015625 303.148438 C 458.539062 302.929688 459.082031 302.765625 459.640625 302.65625 C 460.199219 302.546875 460.761719 302.488281 461.328125 302.488281 C 461.898438 302.488281 462.460938 302.546875 463.019531 302.65625 C 463.574219 302.765625 464.117188 302.929688 464.640625 303.148438 C 465.167969 303.367188 465.667969 303.632812 466.140625 303.949219 C 466.613281 304.265625 467.050781 304.625 467.453125 305.027344 C 467.851562 305.429688 468.210938 305.867188 468.527344 306.339844 C 468.84375 306.8125 469.109375 307.308594 469.328125 307.835938 C 469.546875 308.359375 469.710938 308.902344 469.820312 309.460938 C 469.933594 310.015625 469.988281 310.578125 469.988281 311.148438 Z M 469.988281 311.148438 "/></g></svg>