<svg xmlns="http://www.w3.org/2000/svg" xmlns:xlink="http://www.w3.org/1999/xlink" width="1280" zoomAndPan="magnify" viewBox="0 0 960 599.999999" height="800" preserveAspectRatio="xMidYMid meet" version="1.2"><defs><clipPath id="5f48ecca21"><path d="M 176 6.601562 L 771 6.601562 L 771 593 L 176 593 Z M 176 6.601562 "/></clipPath></defs><g id="9fe95fbbea"><g clip-rule="nonzero" clip-path="url(#5f48ecca21)"><path style=" stroke:none;fill-rule:nonzero;fill:#0d8cff;fill-opacity:1;" d="M 475.417969 455.210938 L 557.464844 399.992188 L 746.832031 581.453125 C 737.160156 588.628906 725.199219 592.894531 712.203125 592.894531 L 234.996094 592.894531 C 222.621094 592.894531 211.179688 589.046875 201.71875 582.390625 L 388.585938 403.214844 L 463.667969 455.003906 C 467.203125 457.394531 471.882812 457.5 475.417969 455.003906 Z M 721.25 148.546875 L 721.25 264.703125 L 766.898438 233.921875 L 721.25 148.441406 Z M 700.449219 278.742188 L 469.699219 433.996094 L 246.847656 280.09375 L 246.847656 54.644531 C 246.847656 28.335938 268.375 6.808594 294.789062 6.808594 L 652.40625 6.808594 C 678.820312 6.808594 700.347656 28.230469 700.347656 54.644531 L 700.347656 278.742188 Z M 609.5625 175.894531 C 609.5625 159.464844 597.917969 145.636719 582.421875 142.308594 L 582.421875 131.285156 C 582.421875 84.074219 533.652344 45.703125 473.753906 45.703125 C 413.855469 45.703125 365.085938 84.074219 365.085938 131.285156 L 365.085938 142.308594 C 349.589844 145.636719 337.945312 159.363281 337.945312 175.894531 L 337.945312 236.625 C 337.945312 255.550781 353.335938 270.941406 372.261719 270.941406 L 383.285156 270.941406 C 402.210938 270.941406 417.601562 255.550781 417.601562 236.625 L 417.601562 175.894531 C 417.601562 157.800781 403.5625 143.140625 385.78125 141.789062 L 385.78125 131.386719 C 385.78125 95.617188 425.191406 66.601562 473.648438 66.601562 C 522.109375 66.601562 561.519531 95.71875 561.519531 131.386719 L 561.519531 141.789062 C 543.738281 143.140625 529.699219 157.800781 529.699219 175.894531 L 529.699219 236.625 C 529.699219 250.664062 538.125 262.625 550.1875 268.03125 C 542.90625 277.703125 529.910156 290.386719 510.566406 293.925781 C 508.175781 275.621094 492.679688 261.480469 473.753906 261.480469 C 453.269531 261.480469 436.527344 278.222656 436.527344 298.707031 C 436.527344 337.289062 488.9375 350.804688 506.925781 315.34375 C 544.777344 312.226562 565.679688 283.835938 573.167969 270.941406 C 596.359375 270.941406 609.460938 253.886719 609.460938 236.625 L 609.460938 175.894531 Z M 761.179688 566.375 C 767.210938 557.226562 770.746094 546.203125 770.746094 534.453125 L 770.746094 256.488281 L 575.144531 388.035156 L 761.179688 566.273438 Z M 371.222656 391.257812 L 176.554688 256.800781 L 176.554688 534.453125 C 176.554688 546.824219 180.398438 558.265625 187.054688 567.726562 Z M 372.15625 162.378906 C 364.667969 162.378906 358.636719 168.410156 358.636719 175.894531 L 358.636719 236.625 C 358.636719 244.113281 364.667969 250.144531 372.15625 250.144531 L 383.179688 250.144531 C 390.667969 250.144531 396.699219 244.113281 396.699219 236.625 L 396.699219 175.894531 C 396.699219 168.410156 390.667969 162.378906 383.179688 162.378906 Z M 226.050781 148.027344 L 180.089844 233.921875 L 226.050781 265.640625 L 226.050781 147.921875 Z M 473.859375 282.171875 C 464.8125 282.171875 457.429688 289.554688 457.429688 298.601562 C 457.429688 307.652344 464.8125 315.035156 473.859375 315.035156 C 482.90625 315.035156 490.289062 307.652344 490.289062 298.601562 C 490.289062 289.554688 482.90625 282.171875 473.859375 282.171875 Z M 575.144531 162.378906 L 564.121094 162.378906 C 556.632812 162.378906 550.601562 168.410156 550.601562 175.894531 L 550.601562 236.625 C 550.601562 244.113281 556.632812 250.144531 564.121094 250.144531 L 575.144531 250.144531 C 582.632812 250.144531 588.664062 244.113281 588.664062 236.625 L 588.664062 175.894531 C 588.664062 168.410156 582.632812 162.378906 575.144531 162.378906 Z M 575.144531 162.378906 "/></g></g></svg>